<svg id="Capa_1" enable-background="new 0 0 501.213 501.213" height="512" viewBox="0 0 501.213 501.213" width="512" xmlns="http://www.w3.org/2000/svg"><g><path id="XMLID_907_" d="m501.213 21.213-21.213-21.213-123.866 123.866c-28.625-23.874-65.426-38.26-105.527-38.26-90.981 0-165 74.019-165 165 0 40.102 14.386 76.902 38.26 105.527l-123.867 123.867 21.213 21.213 123.866-123.866c28.625 23.874 65.426 38.26 105.527 38.26 90.981 0 165-74.019 165-165 0-40.102-14.386-76.902-38.26-105.527zm-385.607 229.393c0-74.439 60.56-135 135-135 31.827 0 61.112 11.078 84.216 29.571l-189.644 189.645c-18.494-23.104-29.572-52.388-29.572-84.216zm270 0c0 74.439-60.561 135-135 135-31.827 0-61.112-11.078-84.216-29.571l189.646-189.645c18.493 23.105 29.57 52.389 29.57 84.216z"/></g></svg>