<svg xmlns="http://www.w3.org/2000/svg" xmlns:xlink="http://www.w3.org/1999/xlink" viewBox="0 0 24 24" fill="#6C757D">
  <path d="M12 1C8.6761905 1 6 3.6761905 6 7L6 8C4.9 8 4 8.9 4 10L4 20C4 21.1 4.9 22 6 22L18 22C19.1 22 20 21.1 20 20L20 10C20 8.9 19.1 8 18 8L18 7C18 3.6761905 15.32381 1 12 1 z M 12 3C14.27619 3 16 4.7238095 16 7L16 8L8 8L8 7C8 4.7238095 9.7238095 3 12 3 z M 12 11C14.2 11 16 12.8 16 15C16 17.2 14.2 19 12 19C9.8 19 8 17.2 8 15C8 12.8 9.8 11 12 11 z M 12 13C10.895 13 10 13.895 10 15C10 16.105 10.895 17 12 17C13.105 17 14 16.105 14 15C14 14.795 13.959344 14.602016 13.902344 14.416016C13.744344 14.759016 13.403 15 13 15C12.448 15 12 14.552 12 14C12 13.597 12.240984 13.255656 12.583984 13.097656C12.397984 13.040656 12.205 13 12 13 z" fill="#6C757D" />
</svg>