<svg aria-hidden="true" style="position: absolute; width: 0; height: 0; overflow: hidden;" version="1.1" xmlns="http://www.w3.org/2000/svg" xmlns:xlink="http://www.w3.org/1999/xlink">
    <defs>
        <symbol id="icon-sort" viewBox="0 0 24 24">
            <path d="M3 12.984v-1.969h12v1.969h-12zM3 6h18v2.016h-18v-2.016zM3 18v-2.016h6v2.016h-6z"></path>
        </symbol>
        <symbol id="icon-sort-asc" viewBox="0 0 16 28">
            <path d="M16 11c0 0.547-0.453 1-1 1h-14c-0.547 0-1-0.453-1-1 0-0.266 0.109-0.516 0.297-0.703l7-7c0.187-0.187 0.438-0.297 0.703-0.297s0.516 0.109 0.703 0.297l7 7c0.187 0.187 0.297 0.438 0.297 0.703z"></path>
        </symbol>
        <symbol id="icon-sort-desc" viewBox="0 0 16 28">
            <path d="M16 17c0 0.266-0.109 0.516-0.297 0.703l-7 7c-0.187 0.187-0.438 0.297-0.703 0.297s-0.516-0.109-0.703-0.297l-7-7c-0.187-0.187-0.297-0.438-0.297-0.703 0-0.547 0.453-1 1-1h14c0.547 0 1 0.453 1 1z"></path>
        </symbol>
        <symbol id="icon-sort1" viewBox="0 0 16 28">
            <path d="M16 17c0 0.266-0.109 0.516-0.297 0.703l-7 7c-0.187 0.187-0.438 0.297-0.703 0.297s-0.516-0.109-0.703-0.297l-7-7c-0.187-0.187-0.297-0.438-0.297-0.703 0-0.547 0.453-1 1-1h14c0.547 0 1 0.453 1 1zM16 11c0 0.547-0.453 1-1 1h-14c-0.547 0-1-0.453-1-1 0-0.266 0.109-0.516 0.297-0.703l7-7c0.187-0.187 0.438-0.297 0.703-0.297s0.516 0.109 0.703 0.297l7 7c0.187 0.187 0.297 0.438 0.297 0.703z"></path>
        </symbol>
    </defs>
</svg>
