<svg id="Capa_1" enable-background="new 0 0 512 512" height="512" viewBox="0 0 512 512" width="512" xmlns="http://www.w3.org/2000/svg"><g><path d="m507.607 4.393c-5.858-5.858-15.355-5.858-21.213 0l-103.59 103.59c-34.119-29.27-78.43-46.983-126.804-46.983-107.523 0-195 87.477-195 195 0 48.374 17.712 92.684 46.983 126.803l-103.59 103.59c-5.858 5.858-5.858 15.355 0 21.213s15.355 5.858 21.213 0l103.59-103.59c34.12 29.272 78.43 46.984 126.804 46.984 107.523 0 195-87.477 195-195 0-48.374-17.712-92.684-46.983-126.803l103.59-103.59c5.858-5.858 5.858-15.356 0-21.214zm-416.607 251.607c0-90.981 74.019-165 165-165 40.101 0 76.902 14.386 105.527 38.26l-232.267 232.267c-23.874-28.625-38.26-65.426-38.26-105.527zm330 0c0 90.981-74.019 165-165 165-40.101 0-76.902-14.386-105.527-38.26l232.267-232.267c23.874 28.625 38.26 65.426 38.26 105.527z"/></g></svg>