<svg xmlns="http://www.w3.org/2000/svg" xmlns:xlink="http://www.w3.org/1999/xlink" viewBox="0 0 50 50"><path d="M25 1C18.382813 1 13 6.382813 13 13L13 16L15 16L15 13C15 7.484375 19.484375 3 25 3C30.515625 3 35 7.484375 35 13L35 16L37 16L37 13C37 6.382813 31.617188 1 25 1 Z M 9 18C7.347656 18 6 19.347656 6 21L6 45C6 46.652344 7.347656 48 9 48L41 48C42.652344 48 44 46.652344 44 45L44 21C44 19.347656 42.652344 18 41 18 Z M 25 26C28.867188 26 32 29.132813 32 33C32 36.867188 28.867188 40 25 40C21.132813 40 18 36.867188 18 33C18 29.132813 21.132813 26 25 26 Z M 25 29C22.800781 29 21 30.800781 21 33C21 35.199219 22.800781 37 25 37C27.199219 37 29 35.199219 29 33C29 32.601563 28.914063 32.210938 28.8125 31.8125C28.511719 32.511719 27.800781 33 27 33C25.898438 33 25 32.101563 25 31C25 30.199219 25.488281 29.488281 26.1875 29.1875C25.789063 29.085938 25.398438 29 25 29Z"/></svg>