<svg width="1440" height="1024" viewBox="0 0 1440 1024" fill="none" xmlns="http://www.w3.org/2000/svg">
<rect width="1440" height="1024" fill="white"/>
<path d="M309.003 166.452H341.686" stroke="white" stroke-width="7.4328" stroke-miterlimit="10" stroke-linecap="round"/>
<path d="M1034.34 166H932.391C925.521 166 919.951 171.569 919.951 178.44V288.814C919.951 295.685 925.521 301.254 932.391 301.254H1034.34C1041.21 301.254 1046.78 295.685 1046.78 288.814V178.44C1046.78 171.569 1041.21 166 1034.34 166Z" fill="#1C85E8"/>
<path d="M935.4 267.665H968.082" stroke="white" stroke-width="7.4328" stroke-miterlimit="10" stroke-linecap="round"/>
<path opacity="0.4" d="M935.4 282.918H1002.94" stroke="white" stroke-width="7.4328" stroke-miterlimit="10" stroke-linecap="round"/>
<path d="M936.123 204.346H953.025C954.267 204.346 955.487 204.671 956.564 205.289C957.641 205.907 958.538 206.797 959.165 207.869L975.527 235.853C976.17 236.952 977.097 237.859 978.211 238.479C979.324 239.098 980.584 239.407 981.858 239.372C983.131 239.338 984.373 238.962 985.452 238.284C986.53 237.606 987.407 236.651 987.991 235.518L998.106 215.872C998.698 214.721 999.593 213.755 1000.69 213.075C1001.79 212.396 1003.06 212.029 1004.35 212.015L1034.04 211.697" stroke="white" stroke-width="4" stroke-miterlimit="10" stroke-linecap="round"/>
<path opacity="0.4" d="M936.123 234.447H944.435C946.313 234.447 948.115 233.705 949.447 232.381L987.871 194.221C989.204 192.897 991.005 192.155 992.883 192.155H1004.13C1005.74 192.155 1007.3 192.699 1008.56 193.699C1009.82 194.698 1010.7 196.095 1011.06 197.66L1016.97 223.109C1017.33 224.674 1018.21 226.07 1019.47 227.07C1020.73 228.07 1022.29 228.614 1023.89 228.614H1034.04" stroke="white" stroke-width="4" stroke-miterlimit="10" stroke-linecap="round"/>
<path d="M1179.63 839.385C1179.63 839.385 1175.9 876.975 1111.13 876.975H1035.19L1135.93 798.651L1179.63 839.385Z" fill="#5661AE"/>
<path d="M1028.94 403.75L1207.27 443.263C1208.86 443.603 1210.37 444.23 1211.73 445.114C1216.66 448.369 1225.47 457.886 1223.78 483.909C1221.52 518.596 1179.63 839.385 1179.63 839.385L1008.41 691.152L1028.94 403.75Z" fill="#5661AE"/>
<path d="M1009.88 402.731L1189.51 442.533C1189.51 442.533 1204.88 448.13 1204.72 482.89C1204.56 517.65 1160.57 838.366 1160.57 838.366L989.346 690.132L1009.88 402.731Z" fill="#1C85E8"/>
<path d="M1012.8 421.054C1012.8 421.054 1015.96 466.841 1017.35 474.097C1019.79 486.807 1075.63 460.106 1071.53 448.789C1069.41 442.917 1059.74 386.969 1059.74 386.969L1012.8 421.054Z" fill="#BC775C"/>
<path d="M1017.68 472.338L1012.9 425.462H1041.2L1017.68 472.338Z" fill="#93523E" stroke="#93523E"/>
<path d="M1083.78 377.155C1085.94 354.102 1059.79 359.073 1055.32 360.113C1050.85 361.153 1043.85 326.991 1043.85 326.991C1043.85 326.991 992.258 317.804 981.205 326.97C981.205 326.97 974.271 370.027 973.153 397.602C972.035 425.177 979.769 437.526 989.878 438.47C1003.65 440.937 1019.94 438.158 1030.35 432.023C1048.89 421.092 1056.81 401.322 1056.81 401.322C1057.14 401.17 1057.32 401.091 1057.32 401.091C1057.32 401.091 1081.75 398.927 1083.78 377.155Z" fill="#BC775C"/>
<path d="M979.739 396.731C984.185 393.914 995.427 394.16 999.992 395.053C1008.69 396.757 1011.36 397.887 1012.34 399.907C1013.32 401.926 1013.51 404.16 1009.88 402.731C1006.24 401.302 998.638 398.692 991.869 398.876C988.724 399.199 985.609 399.767 982.552 400.576C979.024 401.634 975.73 399.271 979.739 396.731Z" fill="#493212"/>
<path d="M976.594 368.594C976.594 368.594 979.527 342.798 979.899 335.656C980.437 325.382 987.945 328.688 993.322 335.894C1001.06 346.594 1015.82 345.917 1028.23 342.56C1039.12 339.905 1039.28 340.53 1040.27 352.031C1041.27 363.532 1044.98 384.889 1048.47 379.778C1052.81 373.088 1055.77 366.824 1063.4 362.752C1073.77 357.219 1084.41 367.427 1081.91 375.31C1079.41 383.195 1073.56 392.271 1060.5 399.725L1066.89 429.335C1099.26 384.434 1111.45 322.769 1067.55 308.491C1051.15 303.156 1034.12 268.585 1002.38 276.45C979.899 282.022 979.899 300.045 978.301 315.717C948.093 317.024 976.594 368.594 976.594 368.594Z" fill="#493212"/>
<path d="M1015.41 377.087C1016.03 373.819 1014.79 370.841 1012.65 370.435C1010.51 370.03 1008.27 372.351 1007.66 375.62C1007.04 378.888 1008.27 381.866 1010.41 382.271C1012.55 382.676 1014.79 380.355 1015.41 377.087Z" fill="#080B09"/>
<path d="M985.94 371.315C986.559 368.047 985.324 365.069 983.183 364.664C981.041 364.259 978.804 366.58 978.186 369.848C977.567 373.117 978.802 376.095 980.943 376.5C983.085 376.905 985.322 374.584 985.94 371.315Z" fill="#080B09"/>
<path d="M991.972 379.778C991.972 379.778 995.805 386.68 990.553 386.934C985.531 387.005 982.689 390.034 987.873 394.16" stroke="#93523E" stroke-width="1.51544" stroke-linecap="round"/>
<path d="M988.908 399.916C992.027 400.052 998.265 400.325 1002.42 400.575C1002.67 400.588 1002.91 400.668 1003.11 400.808C1003.32 400.948 1003.48 401.142 1003.59 401.369C1003.69 401.596 1003.73 401.848 1003.7 402.096C1003.68 402.344 1003.58 402.579 1003.43 402.776C999.827 406.975 991.46 414.615 987.67 401.659C987.576 401.462 987.537 401.244 987.556 401.027C987.574 400.81 987.651 400.602 987.777 400.424C987.903 400.246 988.075 400.105 988.273 400.016C988.472 399.927 988.691 399.892 988.908 399.916Z" fill="white"/>
<path d="M1025.31 366.097L1025.04 366.693C1024.71 367.598 1024.04 368.337 1023.18 368.75C1022.31 369.162 1021.31 369.215 1020.41 368.897L1004.97 363.009C1004.21 362.755 1003.57 362.225 1003.19 361.525C1002.8 360.824 1002.69 360.003 1002.88 359.226C1002.97 358.744 1003.17 358.288 1003.45 357.887C1003.74 357.486 1004.1 357.15 1004.52 356.9C1004.95 356.651 1005.42 356.494 1005.9 356.44C1006.39 356.386 1006.89 356.436 1007.35 356.587L1023.06 361.878C1023.49 362 1023.89 362.208 1024.24 362.488C1024.59 362.769 1024.87 363.116 1025.08 363.51C1025.29 363.904 1025.42 364.335 1025.46 364.78C1025.5 365.224 1025.45 365.672 1025.31 366.097Z" fill="#080B09"/>
<path d="M973.425 353.337L989.929 351.757C990.418 351.716 990.91 351.78 991.372 351.943C991.835 352.107 992.258 352.367 992.613 352.706C992.967 353.045 993.246 353.455 993.431 353.91C993.615 354.365 993.701 354.854 993.682 355.344C993.69 356.144 993.397 356.918 992.861 357.513C992.325 358.107 991.585 358.478 990.788 358.553L974.417 360.776C973.462 360.88 972.504 360.602 971.753 360.003C971.002 359.404 970.518 358.532 970.407 357.577L970.275 356.934C970.238 356.489 970.29 356.041 970.43 355.618C970.569 355.194 970.793 354.802 971.086 354.467C971.38 354.131 971.739 353.858 972.141 353.664C972.543 353.47 972.979 353.358 973.425 353.337Z" fill="#080B09"/>
<path d="M261.36 839.385C261.36 839.385 265.089 876.975 329.865 876.975H405.8L305.063 798.651L261.36 839.385Z" fill="#5661AE"/>
<path d="M412.056 403.75L233.724 443.263C232.137 443.603 230.625 444.23 229.264 445.114C224.331 448.369 215.52 457.886 217.213 483.909C219.469 518.596 261.361 839.386 261.361 839.386L432.586 691.152L412.056 403.75Z" fill="#5661AE"/>
<path d="M431.116 402.731L251.479 442.533C251.479 442.533 236.113 448.13 236.273 482.89C236.434 517.65 280.421 838.366 280.421 838.366L451.646 690.132L431.116 402.731Z" fill="#FEBB94"/>
<path d="M508.863 568.211L526.293 592.604C528.782 596.087 531.981 599.002 535.679 601.157C539.377 603.313 543.49 604.66 547.747 605.109L661.839 617.149L663.573 645.723L524.353 654.175C516.51 654.652 508.669 653.195 501.52 649.934C494.37 646.674 488.13 641.708 483.347 635.473L446.035 586.829L508.863 568.211Z" fill="#FFCCB3"/>
<path d="M519.764 583.467C519.764 583.467 483.897 592.938 473.411 622.519L455.539 596.103L515.91 578.073L519.764 583.467Z" fill="#FF967C"/>
<path d="M432.237 476.195C432.237 476.195 467.137 486.367 476.853 498.113C484.414 507.253 497.268 545.227 507.341 563.516C509.776 567.936 513.23 568.336 510.664 572.68C500.049 590.649 490.952 616.842 473.411 622.519C414.702 613.65 432.237 476.195 432.237 476.195Z" fill="#5661AE"/>
<path d="M469.954 528.231C469.954 528.231 493.246 570.471 496.782 593.171C496.782 593.171 488.489 614.217 482.635 618.498C473.502 625.177 468.487 621.424 468.487 621.424L469.954 528.231Z" fill="#465393"/>
<path d="M348.221 390.871C380.412 390.871 406.507 364.775 406.507 332.585C406.507 300.394 380.412 274.298 348.221 274.298C316.03 274.298 289.935 300.394 289.935 332.585C289.935 364.775 316.03 390.871 348.221 390.871Z" fill="#080B09"/>
<path d="M397.605 301.51C397.605 301.51 322.381 288.228 313.556 379.445C313.556 379.445 321.092 387.549 331.939 388.435C331.939 388.435 340.748 299.927 402.01 306.766L397.605 301.51Z" fill="#FEBB94"/>
<path d="M381.657 304.986C381.657 304.986 373.006 300.496 379.525 295.319C383.642 291.886 386.921 287.558 389.111 282.665C391.173 283.808 392.723 285.69 393.45 287.932C394.177 290.174 394.026 292.608 393.027 294.743C389.686 302.988 387.596 303.451 387.596 303.451L381.657 304.986Z" fill="#FEBB94"/>
<path d="M381.219 300.024C381.219 300.024 378.837 309.475 372.301 304.32C368.013 301.102 363.048 298.905 357.783 297.897C358.421 295.628 359.897 293.687 361.912 292.464C363.927 291.242 366.331 290.83 368.638 291.311C377.43 292.668 378.361 294.597 378.361 294.597L381.219 300.024Z" fill="#FEBB94"/>
<path d="M397.893 435.037L407.102 469.3C407.102 469.3 477.405 549.066 419.055 578.073C408.799 583.172 359.783 543.988 350.58 535.301C341.376 526.614 345.192 475.297 345.192 475.297L366.325 401.999L397.893 435.037Z" fill="#FFCCB3"/>
<path d="M377.176 543.748C377.176 543.748 411.52 565.336 446.035 545.304C446.035 545.304 440.716 575.044 419.794 584.616C398.871 594.187 377.176 543.748 377.176 543.748Z" fill="#1C85E8"/>
<path d="M399.706 441.09L381.242 429.012L408.582 474.992L399.706 441.09Z" fill="#FF967C"/>
<path d="M446.444 350.722C446.444 350.722 456.211 402.11 438.757 432.068C427.374 451.605 411.737 452.156 381.242 429.012C353.281 407.79 347.582 395.104 347.582 395.104L354.417 341.681C354.417 341.681 435.251 304.378 446.444 350.722Z" fill="#FFCCB3"/>
<path d="M407.102 469.301C407.102 469.301 441.671 477.838 447.245 481.768C452.819 485.698 459.973 520.097 470.01 536.026C480.047 551.956 493.757 577.125 476.144 606.234C458.531 635.343 460.119 663.197 460.119 663.197L473.449 736.267H324.98C318.774 736.834 315.473 721.109 315.658 714.88C316.266 694.336 318.213 688.211 316.901 655.636C315.124 611.488 298.636 486.243 298.636 486.243L347.582 468.068C346.077 536.973 386.109 521.934 419.794 584.616C447.367 531.653 407.102 469.301 407.102 469.301Z" fill="#5661AE"/>
<path d="M330.859 521.934C330.859 521.934 338.124 537.076 332.387 552.544C325.936 569.935 318.837 612.313 350.28 614.983C388.82 618.256 372.641 625.243 355.193 630.598C337.744 635.952 344.994 635.517 346.108 653.862C346.901 666.919 311.8 693.428 315.033 683.309C332.38 629.017 273.429 561.931 330.859 521.934Z" fill="#465393"/>
<path d="M414.472 417.317L432.97 420.399C432.901 420.556 432.816 420.74 432.713 420.947C432.379 421.619 431.865 422.511 431.147 423.394C429.713 425.158 427.498 426.853 424.276 426.774C419.231 426.196 416.802 423.673 415.61 421.326C415.007 420.138 414.714 418.983 414.574 418.123C414.522 417.809 414.491 417.536 414.472 417.317Z" fill="#E56441" stroke="#E56441"/>
<path d="M442.682 394.463C444.754 394.362 446.313 391.804 446.163 388.75C446.013 385.697 444.212 383.303 442.14 383.405C440.068 383.506 438.51 386.064 438.659 389.118C438.809 392.172 440.61 394.565 442.682 394.463Z" fill="#080B09"/>
<path d="M412.09 396.4C414.162 396.299 415.72 393.741 415.571 390.687C415.421 387.633 413.62 385.24 411.548 385.342C409.476 385.443 407.917 388.001 408.067 391.055C408.216 394.108 410.017 396.502 412.09 396.4Z" fill="#080B09"/>
<path d="M449.189 375.807L433.63 376.825C433.364 376.82 433.109 376.719 432.912 376.54C432.715 376.362 432.589 376.118 432.558 375.854C432.591 375.377 432.721 374.912 432.939 374.487C433.158 374.062 433.46 373.686 433.827 373.381C434.195 373.076 434.621 372.849 435.079 372.713C435.537 372.577 436.018 372.535 436.492 372.59L449.357 374.007C450.378 373.957 450.465 375.744 449.189 375.807Z" fill="#080B09"/>
<path d="M396.404 377.415L417.145 377.679C417.094 377.049 416.912 376.436 416.61 375.881C416.309 375.326 415.894 374.84 415.393 374.454C414.892 374.069 414.316 373.793 413.702 373.644C413.087 373.495 412.449 373.476 411.827 373.589L396.086 376.151C395.576 376.176 395.639 377.453 396.404 377.415Z" fill="#080B09"/>
<path d="M429.624 388.013L436.278 402.748L431.64 406.989" stroke="#E56441" stroke-width="1.66686" stroke-linecap="round"/>
<path d="M427.353 358.697C416.487 358.772 411.398 356.252 400 361.615C396.403 363.307 393 365 390.937 369.148C388.727 377.49 390.144 389.078 375.441 388.756C375.441 388.756 380.197 372.926 370.094 370.903C352.938 367.468 355.696 395.227 366.325 401.999C373.548 406.601 361.139 439.799 351.908 452.002C320.334 378.216 331.292 370.784 339.501 351.524C353.45 318.794 365.672 308.83 398.693 303.417C398.693 303.417 442.443 304.598 454.042 343.089C463.957 375.994 449.076 388.609 449.076 388.609C449.076 388.609 449.538 364.124 447.116 361.615C443.93 358.314 441.346 358.6 427.353 358.697Z" fill="#080B09"/>
<path d="M958.222 756.978L834.416 778.972L858.785 876.975H938.089C938.089 876.975 975.786 795.946 958.222 756.978Z" fill="#FFCCB3"/>
<path d="M879.178 765.563C879.178 765.563 898.258 771.439 906.134 802.558C914.011 833.678 905.417 876.975 905.417 876.975H917.685C917.685 876.975 961.433 825.6 929.247 760.125L879.178 765.563Z" fill="#FF967C"/>
<path d="M1137.99 726.095C1137.99 726.095 1147.53 797.338 1133.29 831.297C1121.17 860.178 1102.45 876.552 1079.72 876.975H905.416C905.416 876.975 905.141 783.874 831.624 767.968C831.624 767.968 1073.58 700.58 1137.99 726.095Z" fill="#1F2D49"/>
<path d="M1141.34 747.701L983.188 752.908L984.87 741.861L1015.69 738.298H1141.12L1141.34 747.701Z" fill="#0D1B33"/>
<path d="M1018.6 468.636C1017.24 474.403 1016.89 453.999 1014.14 454.85C1001.55 458.752 965.726 469.931 958.106 473.119C948.824 477.002 948.205 492.533 947.586 503.535C947.152 511.243 958.625 619.449 959.197 692.756C959.319 708.417 943.469 726.749 941.594 735.454C941.073 737.798 940.794 740.19 940.761 742.591C940.752 744.265 941.407 745.875 942.583 747.066C943.759 748.258 945.36 748.934 947.035 748.947L1135.89 750.712C1135.89 750.712 1144.26 751.929 1142.24 742.374C1140.24 731.923 1139.15 721.319 1138.96 710.68C1137.08 634.54 1136.72 507.026 1135.9 500.989C1134.66 491.929 1144.39 484.127 1133.85 479.566L1075.36 456.198C1075.36 456.198 1064.64 464.019 1063.09 464.811C1033.71 479.836 1018.6 468.636 1018.6 468.636Z" fill="#FEBB94"/>
<path d="M1030.77 476.407C1030.77 476.407 1024.09 500.935 1027.18 524.627C1030.26 548.319 1018.09 580.734 1015.57 606.747C1013.05 632.76 1025.39 666.839 1023.46 688.675C1021.54 710.51 1028.54 750.763 1028.54 750.763" stroke="#FF967C" stroke-width="3" stroke-miterlimit="10"/>
<path d="M501.404 738.819L625.211 760.814L600.841 858.817H521.537C521.537 858.817 483.84 777.788 501.404 738.819Z" fill="#FFCCB3"/>
<path d="M580.448 747.404C580.448 747.404 561.368 753.28 553.492 784.4C545.616 815.519 554.21 858.817 554.21 858.817H541.941C541.941 858.817 498.194 807.441 530.38 741.966L580.448 747.404Z" fill="#FF967C"/>
<path d="M317.966 712.545C317.966 712.545 296.026 753.726 298.636 808.03C301.116 859.605 329.332 876.975 373.938 876.975L554.21 858.817C554.21 858.817 554.485 765.715 628.002 749.81C628.002 749.81 546.149 690.229 463.354 705.198C422.717 712.545 397.186 721.485 317.966 712.545Z" fill="#1F2D49"/>
<path d="M314.882 698.779C314.882 698.779 431.637 710.977 474.669 678.823L472.745 705.667C472.745 705.667 399.984 746.092 316.599 723.343C316.599 723.343 304.097 714.563 314.882 698.779Z" fill="#1C85E8"/>
<path d="M671.185 657.565C671.185 657.565 705.869 650.303 720.232 653.63C734.87 656.654 765.678 664.362 760.16 686.948C756.343 703.074 739.507 696.686 739.507 696.686C739.507 696.686 743.889 703.126 737.375 706.064C733.403 707.714 707.777 693.66 707.777 693.66C690.675 699.161 668.359 687.547 668.359 687.547L671.185 657.565Z" fill="#FFCCB3"/>
<path d="M720.531 688.088L739.218 696.7" stroke="#FF967C" stroke-width="2.89316" stroke-linecap="round" stroke-linejoin="round"/>
<path d="M724.71 673.392C729.392 674.313 750.464 684.253 750.464 684.253" stroke="#FF967C" stroke-width="2.89316" stroke-linecap="round" stroke-linejoin="round"/>
<path d="M727.332 662.251C736.717 664.597 745.696 668.341 753.967 673.357" stroke="#FF967C" stroke-width="2.89316" stroke-linecap="round" stroke-linejoin="round"/>
<path d="M516.982 545.304H893.413L1083.91 858.817H361.342L516.982 545.304Z" fill="url(#paint0_linear)"/>
<path d="M823.424 678.98L836.044 755.386L906.134 802.558L1023.47 789.88L994.646 755.386L823.424 678.98Z" fill="#96BAFD"/>
<path d="M755.982 603.127L808.521 700.001L886.757 774.223L823.424 678.98L755.982 603.127Z" fill="white"/>
<path d="M755.982 603.127L808.521 700.001L803.454 703.898L751.701 605.743L755.982 603.127Z" fill="#5CA4E6"/>
<path d="M808.521 700.001L886.757 774.223V778.977L803.454 703.898L808.521 700.001Z" fill="#5CA4E6"/>
<path d="M886.757 778.977L994.646 759.256V755.386L886.757 774.223V778.977Z" fill="#5CA4E6"/>
<path d="M994.646 755.386L924.361 665.427L823.424 678.98L886.757 774.223L994.646 755.386Z" fill="#E7EFFF"/>
<path d="M351.446 528.434L335.153 622.118C334.742 624.46 333.449 626.556 331.541 627.975C329.632 629.394 327.253 630.028 324.892 629.747C324.892 629.747 278.978 626.728 263.694 625.455C260.094 625.155 250.31 616.281 253.301 601.665C256.043 581.699 268.886 535.078 277.007 509.19C280.789 496.309 321.232 504.02 321.232 504.02L351.446 528.434Z" fill="#5661AE"/>
<path d="M313.334 560.496C334.625 560.496 351.884 543.237 351.884 521.946C351.884 500.656 334.625 483.396 313.334 483.396C292.044 483.396 274.784 500.656 274.784 521.946C274.784 543.237 292.044 560.496 313.334 560.496Z" fill="#5661AE"/>
<path d="M264.747 630.66L265.377 623.191L322.537 629.701L321.652 636.057L316.789 676.139L261.212 670.144L264.747 630.66Z" fill="#FFCCB3"/>
<path d="M265.655 623.127L322.537 629.701L321.652 636.057C308.727 634.629 279.749 632.197 264.747 630.66L265.655 623.127Z" fill="#FF967C"/>
<path d="M288.782 699.601C304.237 699.601 316.766 687.072 316.766 671.617C316.766 656.161 304.237 643.632 288.782 643.632C273.326 643.632 260.797 656.161 260.797 671.617C260.797 687.072 273.326 699.601 288.782 699.601Z" fill="#FFCCB3"/>
<path d="M302.595 695.709L460.528 621.568C460.528 621.568 470.002 587.888 459.7 593.48C449.14 599.196 280.887 644.677 280.887 644.677L302.595 695.709Z" fill="#FFCCB3"/>
<path d="M550.871 625.287L483.724 637.018C479.399 637.774 476.523 634.77 477.302 630.308L497.949 511.95C498.728 507.489 502.865 503.259 507.191 502.503L574.337 490.772C578.663 490.016 581.538 493.02 580.76 497.482L560.112 615.84C559.334 620.301 555.197 624.531 550.871 625.287Z" fill="#1C85E8"/>
<path d="M553.884 624.76L486.738 636.492C482.412 637.248 479.537 634.243 480.315 629.782L500.963 511.424C501.741 506.962 505.879 502.733 510.204 501.977L577.351 490.245C581.676 489.489 584.552 492.493 583.773 496.955L563.126 615.313C562.347 619.775 558.21 624.004 553.884 624.76Z" fill="#B2CDFF"/>
<path d="M450.172 596.776L457.968 622.19C457.968 622.19 490.266 614.445 497.175 611.053C510.648 604.126 525.136 594.783 526.833 591.231C532.031 582.247 532.643 571.131 532.048 563.367C531.973 562.213 531.614 561.096 531.005 560.113C530.396 559.13 529.554 558.313 528.554 557.732C527.555 557.151 526.427 556.825 525.272 556.783C524.116 556.74 522.968 556.982 521.928 557.488L493.657 571.598C493.657 571.598 489.976 565.379 493.679 560.437C496.065 557.175 492.384 550.957 490.748 549.051C490.103 548.17 486.661 548.144 485.881 549.035C484.565 550.716 486.375 556.554 483.598 560.26C478.87 566.193 483.067 568.77 470.894 578.884C461.264 586.817 450.072 596.532 450.172 596.776Z" fill="#FFCCB3"/>
<path d="M504.848 575.896C512.892 573.185 529.297 563.632 529.297 563.632" stroke="#FF967C" stroke-width="2.09903" stroke-linecap="round" stroke-linejoin="round"/>
<path d="M503.791 586.622C510.265 584.266 527.36 575.003 527.36 575.003" stroke="#FF967C" stroke-width="2.09903" stroke-linecap="round" stroke-linejoin="round"/>
<path d="M507.692 596.182C511.96 594.727 524.652 588.69 524.652 588.69" stroke="#FF967C" stroke-width="2.09903" stroke-linecap="round" stroke-linejoin="round"/>
<path d="M263.794 620.141C262.41 625.706 262.542 631.539 264.176 637.035C264.176 637.035 291.674 650.355 320.729 643.665C322.687 641.99 324.121 639.787 324.859 637.318C325.597 634.85 325.609 632.221 324.892 629.747L263.794 620.141Z" fill="#5661AE"/>
<path d="M1082.93 520.523C1082.93 520.523 1074.46 566.878 1079.72 612.208C1083.01 640.573 1101.1 669.691 1100.87 683.23C1100.5 705.15 1075.44 714.435 1075.37 727.127C1075.32 734.636 1095.61 729.964 1104.58 727.045C1124.73 720.483 1137.97 729.399 1137.97 729.399L1132.6 537.085L1082.93 520.523Z" fill="#FF967C"/>
<path d="M1136.77 509.252C1118.18 485.985 1109.84 497.128 1103.31 497.697C1103.31 497.697 1081.19 501.817 1082.93 520.523C1084.77 540.316 1117.31 672.219 1117.31 672.219L1185.62 667.085L1182.38 648.897L1175.71 611.435L1168.6 571.38L1167.97 566.612L1159.98 513.917C1159.98 513.917 1146.4 521.678 1136.77 509.252Z" fill="#FEBB94"/>
<path d="M1141.36 549.416C1159.52 538.266 1165.21 514.505 1154.06 496.343C1142.91 478.182 1119.15 472.498 1100.99 483.648C1082.82 494.797 1077.14 518.559 1088.29 536.72C1099.44 554.881 1123.2 560.565 1141.36 549.416Z" fill="#FEBB94"/>
<path d="M977.867 677.695L934.799 680.899L924.619 704.911L928.098 734.552C928.098 734.552 935.509 731.532 936.276 721.047C937.043 710.562 971.328 718 980.291 706.484" fill="#BC775C"/>
<path d="M1142.15 638.854L975.056 670.351C974.051 670.582 973.168 671.176 972.576 672.019C971.984 672.863 971.725 673.895 971.849 674.918L975.894 706.714C976.105 708.234 976.873 709.622 978.05 710.607C979.226 711.593 980.727 712.105 982.26 712.046L1154.38 705.313L1142.15 638.854Z" fill="#FEBB94"/>
<path d="M1152.03 705.57C1170.91 705.57 1186.22 690.262 1186.22 671.379C1186.22 652.495 1170.91 637.188 1152.03 637.188C1133.15 637.188 1117.84 652.495 1117.84 671.379C1117.84 690.262 1133.15 705.57 1152.03 705.57Z" fill="#FEBB94"/>
<path d="M979.131 515.916C984.71 488.373 971.59 489.083 967.224 484.703C967.224 484.703 950.843 471.196 938.362 483.787C925.15 497.106 849.417 600.569 849.417 600.569L896.803 644.151L905.71 633.522L928.782 606.004L953.461 576.594L956.527 573.245L989.817 535.538C989.817 535.538 975.976 530.416 979.131 515.916Z" fill="#FEBB94"/>
<path d="M998.949 520.609C1005.34 501.538 995.055 480.9 975.984 474.512C956.913 468.124 936.274 478.406 929.886 497.477C923.499 516.548 933.781 537.187 952.852 543.575C971.923 549.963 992.562 539.681 998.949 520.609Z" fill="#FEBB94"/>
<path d="M953.461 576.593C952.045 561.285 946.968 538.353 946.968 538.353C946.968 538.353 942.583 537.948 929.055 568.176C919.037 590.829 907.415 613.918 905.492 633.449L928.564 605.931L953.461 576.593Z" fill="#FF967C"/>
<path d="M860.928 466.457C858.461 443.165 864.799 442.036 864.886 429.408C864.93 417.067 883.564 394.221 874.677 394.683C865.79 395.144 859.548 403.637 859.548 403.637C858.231 392.567 860.457 374.144 849.129 367.193C837.8 360.242 835.133 363.607 825.908 366.371C801.281 373.934 815.028 406.522 815.28 416.848C815.503 423.348 826.934 447.66 827.453 452.145L831.093 469.435L860.928 466.457Z" fill="#BC775C"/>
<path d="M846.892 399.726L843.524 366.292L846.892 399.726Z" fill="#93523E"/>
<path d="M846.892 399.726L843.524 366.292" stroke="#93523E" stroke-width="1.51544" stroke-linecap="round"/>
<path d="M835.373 400.096L829.894 367.98L835.373 400.096Z" fill="#93523E"/>
<path d="M835.373 400.096L829.894 367.98" stroke="#93523E" stroke-width="1.51544" stroke-linecap="round"/>
<path d="M821.839 400.171L819.069 380.95L821.839 400.171Z" fill="#93523E"/>
<path d="M821.839 400.171L819.069 380.95" stroke="#93523E" stroke-width="1.51544" stroke-linecap="round"/>
<path d="M840.507 425.248C844.531 415.842 854.971 406.789 854.971 406.789L840.507 425.248Z" fill="#93523E"/>
<path d="M840.507 425.248C844.531 415.842 854.971 406.789 854.971 406.789" stroke="#93523E" stroke-width="1.51544" stroke-linecap="round"/>
<path d="M904.075 609.855L867.177 469.427C866.902 468.494 866.29 467.697 865.461 467.188C864.633 466.68 863.645 466.496 862.689 466.672L832.974 472.335C831.554 472.622 830.292 473.427 829.432 474.592C828.573 475.758 828.177 477.201 828.322 478.642L842.186 625.247L904.075 609.855Z" fill="#FEBB94"/>
<path d="M830.762 478.419C830.762 478.419 827.103 464.4 830.762 462.859C834.421 461.319 857.348 456.939 860.425 459.803C863.502 462.667 866.188 474.607 866.188 474.607L830.762 478.419Z" fill="#FEBB94"/>
<path d="M874.015 653.326C891.836 653.326 906.283 638.879 906.283 621.058C906.283 603.237 891.836 588.79 874.015 588.79C856.193 588.79 841.746 603.237 841.746 621.058C841.746 638.879 856.193 653.326 874.015 653.326Z" fill="#FEBB94"/>
<path d="M348.221 464.791C348.221 464.791 371.739 510.341 395.756 517.832C395.756 517.832 409.254 510.665 407.102 469.3" stroke="white" stroke-miterlimit="10"/>
<path d="M394.912 529.572C399.436 529.572 403.103 525.905 403.103 521.382C403.103 516.858 399.436 513.191 394.912 513.191C390.388 513.191 386.721 516.858 386.721 521.382C386.721 525.905 390.388 529.572 394.912 529.572Z" fill="#5661AE"/>
<path d="M383.89 514.083C385.454 514.083 386.721 512.815 386.721 511.252C386.721 509.689 385.454 508.421 383.89 508.421C382.327 508.421 381.06 509.689 381.06 511.252C381.06 512.815 382.327 514.083 383.89 514.083Z" fill="#5661AE"/>
<path d="M403.103 512.331C404.666 512.331 405.934 511.063 405.934 509.5C405.934 507.937 404.666 506.669 403.103 506.669C401.539 506.669 400.272 507.937 400.272 509.5C400.272 511.063 401.539 512.331 403.103 512.331Z" fill="#5661AE"/>
<path d="M630.574 652.758L538.265 653.279V741.966L675.653 733.959L630.574 652.758Z" fill="white"/>
<path d="M621.836 661.399L637.1 692.756" stroke="#1C85E8" stroke-width="3.81627" stroke-miterlimit="10" stroke-linecap="round"/>
<path opacity="0.4" d="M606.959 661.402L612.679 673.152" stroke="#1C85E8" stroke-width="3.81627" stroke-miterlimit="10" stroke-linecap="round"/>
<path opacity="0.4" d="M544.491 661.402L590.146 660.341L593.501 671.509L545.404 673.152L544.491 661.402Z" fill="#1C85E8"/>
<path opacity="0.4" d="M545.772 679.572L572.576 678.849L575.931 690.016L546.685 691.322L545.772 679.572Z" fill="#1C85E8"/>
<path opacity="0.4" d="M545.772 699.355L591.426 698.295L594.782 709.462L546.685 711.105L545.772 699.355Z" fill="#1C85E8"/>
<path opacity="0.4" d="M547.053 717.526L573.857 716.803L577.212 727.97L547.966 729.276L547.053 717.526Z" fill="#1C85E8"/>
<path d="M468.487 802.558L570.277 738.819L642.445 759.344L555.466 835.794L468.487 802.558Z" fill="#1C85E8"/>
<path d="M1030.54 472.758C1030.54 472.758 1064.64 461.326 1071.05 446.215C1071.05 446.215 1086.62 448.454 1092.73 454.307C1098.81 460.161 1113.65 461.902 1100.79 468.41C1087.93 474.918 1037.78 480.431 1034.73 479.58C1031.68 478.729 1030.54 472.758 1030.54 472.758Z" fill="white"/>
<path d="M1016.41 451.95V459.598C1016.41 459.598 1019.46 470.584 1030.54 472.758C1030.54 472.758 1032.27 478.821 1026.17 479.541C1020.08 480.261 1002.36 471.304 999.753 470.427C997.134 469.563 995.982 465.949 1001.06 463.055C1001.06 463.055 1002.88 453.142 1016.41 451.95Z" fill="white"/>
<path d="M1047.47 559.157C1047.42 559.159 1047.37 559.155 1047.33 559.144C1047.16 559.105 1047.01 559.001 1046.92 558.856C1046.83 558.709 1046.79 558.53 1046.83 558.358C1048.69 550.239 1043.49 540.209 1038.47 530.506C1034.74 523.304 1030.88 515.853 1029.9 509.135C1027.59 493.539 1033.9 476.018 1033.97 475.848C1034.03 475.686 1034.15 475.554 1034.31 475.481C1034.47 475.407 1034.64 475.398 1034.81 475.455C1034.89 475.484 1034.96 475.529 1035.03 475.587C1035.09 475.645 1035.14 475.714 1035.18 475.792C1035.22 475.87 1035.24 475.955 1035.24 476.041C1035.24 476.127 1035.23 476.213 1035.2 476.294C1035.14 476.464 1028.93 493.683 1031.18 508.952C1032.15 515.447 1035.95 522.793 1039.64 529.903C1044.76 539.816 1050.08 550.069 1048.11 558.659C1048.08 558.803 1048 558.93 1047.88 559.021C1047.76 559.111 1047.62 559.159 1047.47 559.157Z" fill="white"/>
<path d="M1023.26 551.719C1023.11 551.722 1022.97 551.673 1022.85 551.583C1022.74 551.492 1022.66 551.364 1022.63 551.221C1018.53 534.028 1022.92 504.552 1024.36 495.922C1025.56 489.4 1025.98 482.758 1025.62 476.136C1025.6 475.965 1025.66 475.794 1025.77 475.662C1025.88 475.53 1026.03 475.446 1026.21 475.429C1026.38 475.412 1026.55 475.463 1026.68 475.57C1026.82 475.678 1026.9 475.834 1026.92 476.005C1027.3 482.741 1026.87 489.496 1025.65 496.132C1024.21 504.709 1019.85 533.963 1023.9 550.92C1023.92 551.017 1023.93 551.118 1023.9 551.215C1023.88 551.313 1023.84 551.404 1023.78 551.483C1023.72 551.557 1023.64 551.617 1023.55 551.657C1023.45 551.698 1023.36 551.719 1023.26 551.719V551.719Z" fill="white"/>
<g opacity="0.6">
<path opacity="0.6" d="M1046.78 563.855C1049.06 563.855 1050.91 562.01 1050.91 559.733C1050.91 557.457 1049.06 555.611 1046.78 555.611C1044.49 555.611 1042.64 557.457 1042.64 559.733C1042.64 562.01 1044.49 563.855 1046.78 563.855Z" fill="white"/>
</g>
<g opacity="0.6">
<path opacity="0.6" d="M1024 555.199C1026.29 555.199 1028.14 553.354 1028.14 551.077C1028.14 548.801 1026.29 546.956 1024 546.956C1021.72 546.956 1019.87 548.801 1019.87 551.077C1019.87 553.354 1021.72 555.199 1024 555.199Z" fill="white"/>
</g>
<path d="M775.69 197.54H781.69" stroke="#5CA4E6" stroke-miterlimit="10"/>
<path d="M885.517 166.147H539.871C529.772 166.147 521.584 174.335 521.584 184.434V407.178C521.584 417.278 529.772 425.465 539.871 425.465H885.517C895.616 425.465 903.804 417.278 903.804 407.178V184.434C903.804 174.335 895.616 166.147 885.517 166.147Z" fill="url(#paint1_linear)"/>
<path d="M873.424 359.794H681.408C678.23 359.794 675.654 362.37 675.654 365.548V391.515C675.654 394.693 678.23 397.269 681.408 397.269H873.424C876.602 397.269 879.178 394.693 879.178 391.515V365.548C879.178 362.37 876.602 359.794 873.424 359.794Z" fill="white"/>
<path d="M813.952 375.961V374.468H817.334V387.471H815.679V375.961H813.952ZM820.109 377.741C820.193 376.638 820.618 375.775 821.386 375.151C822.153 374.528 823.148 374.216 824.371 374.216C825.187 374.216 825.888 374.366 826.475 374.666C827.075 374.954 827.525 375.349 827.824 375.853C828.136 376.356 828.292 376.926 828.292 377.561C828.292 378.305 828.076 378.946 827.644 379.486C827.225 380.025 826.673 380.373 825.99 380.529V380.619C826.769 380.811 827.387 381.188 827.842 381.752C828.298 382.315 828.526 383.053 828.526 383.964C828.526 384.647 828.37 385.265 828.058 385.816C827.746 386.356 827.279 386.782 826.655 387.093C826.032 387.405 825.282 387.561 824.407 387.561C823.136 387.561 822.093 387.231 821.278 386.572C820.463 385.9 820.007 384.953 819.911 383.73H821.494C821.578 384.45 821.871 385.037 822.375 385.493C822.878 385.948 823.55 386.176 824.389 386.176C825.228 386.176 825.864 385.96 826.296 385.529C826.739 385.085 826.961 384.515 826.961 383.82C826.961 382.921 826.661 382.273 826.062 381.878C825.462 381.482 824.557 381.284 823.346 381.284H822.932V379.917H823.364C824.467 379.905 825.3 379.726 825.864 379.378C826.427 379.018 826.709 378.467 826.709 377.723C826.709 377.088 826.499 376.578 826.08 376.195C825.672 375.811 825.085 375.619 824.317 375.619C823.574 375.619 822.974 375.811 822.519 376.195C822.063 376.578 821.793 377.094 821.709 377.741H820.109ZM830.538 386.158C832.06 384.935 833.253 383.934 834.117 383.155C834.98 382.363 835.705 381.542 836.293 380.691C836.892 379.827 837.192 378.982 837.192 378.155C837.192 377.376 837 376.764 836.616 376.32C836.245 375.865 835.639 375.637 834.8 375.637C833.985 375.637 833.349 375.895 832.894 376.41C832.45 376.914 832.21 377.591 832.174 378.443H830.592C830.639 377.1 831.047 376.063 831.814 375.331C832.582 374.6 833.571 374.234 834.782 374.234C836.017 374.234 836.994 374.576 837.713 375.259C838.445 375.943 838.811 376.884 838.811 378.083C838.811 379.078 838.511 380.049 837.911 380.996C837.324 381.932 836.652 382.759 835.897 383.478C835.142 384.186 834.176 385.013 833.001 385.96H839.188V387.327H830.538V386.158Z" fill="#1C85E8"/>
<path d="M648.75 193.612H548.123C544.35 193.612 541.291 196.671 541.291 200.445V390.437C541.291 394.21 544.35 397.269 548.123 397.269H648.75C652.523 397.269 655.582 394.21 655.582 390.437V200.445C655.582 196.671 652.523 193.612 648.75 193.612Z" fill="#1C85E8"/>
<path opacity="0.4" d="M598.437 328.864C614.354 328.864 627.258 315.96 627.258 300.043C627.258 284.125 614.354 271.221 598.437 271.221C582.519 271.221 569.615 284.125 569.615 300.043C569.615 315.96 582.519 328.864 598.437 328.864Z" fill="white"/>
<path d="M589.521 292.108V310.4C589.521 310.907 589.653 311.406 589.904 311.847C590.155 312.287 590.516 312.655 590.952 312.913C591.388 313.172 591.884 313.313 592.391 313.322C592.899 313.33 593.399 313.207 593.844 312.964L610.566 303.817C611.026 303.566 611.41 303.195 611.677 302.744C611.944 302.293 612.085 301.778 612.085 301.254C612.085 300.73 611.944 300.215 611.677 299.764C611.41 299.313 611.026 298.942 610.566 298.691L593.844 289.544C593.399 289.301 592.899 289.178 592.391 289.186C591.884 289.195 591.388 289.336 590.952 289.594C590.516 289.853 590.155 290.221 589.904 290.661C589.653 291.102 589.521 291.6 589.521 292.108Z" fill="white"/>
<path d="M680.816 218.073H752.702" stroke="white" stroke-width="16.3488" stroke-miterlimit="10" stroke-linecap="round"/>
<path opacity="0.4" d="M680.816 251.622H829.375" stroke="white" stroke-width="16.3488" stroke-miterlimit="10" stroke-linecap="round"/>
<path d="M681.702 296.089H753.589" stroke="white" stroke-width="16.3488" stroke-miterlimit="10" stroke-linecap="round"/>
<path opacity="0.4" d="M681.702 329.637H830.261" stroke="white" stroke-width="16.3488" stroke-miterlimit="10" stroke-linecap="round"/>
<path d="M707.76 372.123C706.635 371.084 705.159 370.506 703.628 370.506C702.096 370.506 700.621 371.084 699.496 372.123L697.939 373.56L696.382 372.123C695.257 371.084 693.782 370.506 692.25 370.506C690.719 370.506 689.243 371.084 688.119 372.123C687.525 372.661 687.05 373.317 686.725 374.049C686.4 374.781 686.232 375.574 686.232 376.375C686.232 377.176 686.4 377.968 686.725 378.7C687.05 379.433 687.525 380.089 688.119 380.626L697.939 389.728L707.76 380.746C708.38 380.212 708.877 379.55 709.218 378.806C709.559 378.062 709.736 377.253 709.736 376.435C709.736 375.616 709.559 374.807 709.218 374.063C708.877 373.319 708.38 372.657 707.76 372.123Z" fill="#F4608A"/>
<path d="M718.724 377.741C718.808 376.638 719.234 375.775 720.001 375.151C720.769 374.528 721.764 374.216 722.987 374.216C723.802 374.216 724.504 374.366 725.091 374.666C725.691 374.954 726.14 375.349 726.44 375.853C726.752 376.356 726.908 376.926 726.908 377.561C726.908 378.305 726.692 378.946 726.26 379.486C725.84 380.025 725.289 380.373 724.605 380.529V380.619C725.385 380.811 726.002 381.188 726.458 381.752C726.913 382.315 727.141 383.053 727.141 383.964C727.141 384.647 726.985 385.265 726.674 385.816C726.362 386.356 725.894 386.782 725.271 387.093C724.647 387.405 723.898 387.561 723.023 387.561C721.752 387.561 720.709 387.231 719.893 386.572C719.078 385.9 718.623 384.953 718.527 383.73H720.109C720.193 384.45 720.487 385.037 720.991 385.493C721.494 385.948 722.166 386.176 723.005 386.176C723.844 386.176 724.48 385.96 724.911 385.529C725.355 385.085 725.577 384.515 725.577 383.82C725.577 382.921 725.277 382.273 724.677 381.878C724.078 381.482 723.173 381.284 721.962 381.284H721.548V379.917H721.98C723.083 379.905 723.916 379.726 724.48 379.378C725.043 379.018 725.325 378.467 725.325 377.723C725.325 377.088 725.115 376.578 724.695 376.195C724.288 375.811 723.7 375.619 722.933 375.619C722.19 375.619 721.59 375.811 721.134 376.195C720.679 376.578 720.409 377.094 720.325 377.741H718.724ZM731.311 385.205L729.297 390.043H728.2L729.513 385.205H731.311ZM741.207 375.889H734.895V379.989C735.17 379.606 735.578 379.294 736.118 379.054C736.657 378.802 737.239 378.676 737.862 378.676C738.857 378.676 739.667 378.886 740.29 379.306C740.914 379.714 741.357 380.247 741.621 380.907C741.897 381.554 742.035 382.243 742.035 382.975C742.035 383.838 741.873 384.611 741.549 385.295C741.225 385.978 740.728 386.518 740.056 386.913C739.397 387.309 738.576 387.507 737.592 387.507C736.333 387.507 735.314 387.183 734.535 386.536C733.756 385.888 733.282 385.025 733.114 383.946H734.715C734.871 384.629 735.2 385.163 735.704 385.547C736.208 385.93 736.843 386.122 737.61 386.122C738.558 386.122 739.271 385.84 739.751 385.277C740.23 384.701 740.47 383.946 740.47 383.011C740.47 382.076 740.23 381.356 739.751 380.853C739.271 380.337 738.564 380.079 737.628 380.079C736.993 380.079 736.435 380.235 735.956 380.547C735.488 380.847 735.146 381.26 734.931 381.788H733.384V374.45H741.207V375.889ZM744.012 386.158C745.534 384.935 746.727 383.934 747.591 383.155C748.454 382.363 749.179 381.542 749.767 380.691C750.366 379.827 750.666 378.982 750.666 378.155C750.666 377.376 750.474 376.764 750.09 376.32C749.719 375.865 749.113 375.637 748.274 375.637C747.459 375.637 746.823 375.895 746.368 376.41C745.924 376.914 745.684 377.591 745.648 378.443H744.066C744.114 377.1 744.521 376.063 745.289 375.331C746.056 374.6 747.045 374.234 748.256 374.234C749.491 374.234 750.468 374.576 751.188 375.259C751.919 375.943 752.285 376.884 752.285 378.083C752.285 379.078 751.985 380.049 751.385 380.996C750.798 381.932 750.126 382.759 749.371 383.478C748.616 384.186 747.651 385.013 746.476 385.96H752.662V387.327H744.012V386.158ZM762.557 375.745L757.558 387.471H755.903L760.975 375.907H754.033V374.504H762.557V375.745Z" fill="#1C85E8"/>
<path d="M806.616 378.551C806.616 373.034 800.079 368.562 792.016 368.562C783.953 368.562 777.416 373.034 777.416 378.551C777.416 384.068 783.953 388.54 792.016 388.54C792.593 388.54 793.158 388.51 793.717 388.463C793.803 388.455 793.889 388.468 793.969 388.499C794.05 388.53 794.122 388.578 794.181 388.641C795.217 389.726 797.491 391.405 801.799 391.671C801.907 391.678 802.014 391.656 802.11 391.606C802.206 391.555 802.285 391.48 802.341 391.387C802.396 391.294 802.425 391.188 802.424 391.08C802.422 390.972 802.391 390.866 802.334 390.775C801.581 389.651 800.994 388.425 800.589 387.135C800.556 387.006 800.568 386.87 800.623 386.75C800.678 386.629 800.773 386.531 800.892 386.472C804.368 384.647 806.616 381.781 806.616 378.551Z" fill="#1C85E8"/>
<path d="M490.191 166H363.406C353.74 166 345.905 173.835 345.905 183.501V358.353C345.905 368.018 353.74 375.854 363.406 375.854H490.191C499.856 375.854 507.692 368.018 507.692 358.353V183.501C507.692 173.835 499.856 166 490.191 166Z" fill="#1C85E8"/>
<path d="M418.564 295.195L411.922 310.772H409.724L416.461 295.41H407.239V293.546H418.564V295.195ZM424.128 301.789C423.236 301.439 422.551 300.929 422.073 300.26C421.595 299.591 421.357 298.779 421.357 297.823C421.357 296.963 421.572 296.19 422.002 295.506C422.432 294.805 423.069 294.255 423.913 293.857C424.773 293.443 425.808 293.236 427.019 293.236C428.229 293.236 429.257 293.443 430.101 293.857C430.961 294.255 431.606 294.805 432.036 295.506C432.482 296.19 432.705 296.963 432.705 297.823C432.705 298.747 432.458 299.559 431.964 300.26C431.471 300.945 430.794 301.455 429.934 301.789C430.921 302.092 431.702 302.625 432.275 303.39C432.864 304.138 433.159 305.046 433.159 306.113C433.159 307.149 432.904 308.057 432.394 308.837C431.885 309.602 431.16 310.199 430.22 310.629C429.297 311.043 428.229 311.25 427.019 311.25C425.808 311.25 424.741 311.043 423.817 310.629C422.91 310.199 422.201 309.602 421.691 308.837C421.181 308.057 420.927 307.149 420.927 306.113C420.927 305.046 421.213 304.13 421.787 303.366C422.36 302.601 423.14 302.076 424.128 301.789ZM430.603 298.086C430.603 297.114 430.284 296.366 429.647 295.84C429.01 295.314 428.134 295.052 427.019 295.052C425.92 295.052 425.052 295.314 424.415 295.84C423.778 296.366 423.459 297.122 423.459 298.11C423.459 299.002 423.786 299.718 424.439 300.26C425.108 300.801 425.968 301.072 427.019 301.072C428.086 301.072 428.946 300.801 429.599 300.26C430.268 299.702 430.603 298.978 430.603 298.086ZM427.019 302.745C425.84 302.745 424.877 303.023 424.128 303.581C423.379 304.122 423.005 304.943 423.005 306.042C423.005 307.061 423.363 307.881 424.08 308.503C424.813 309.124 425.792 309.434 427.019 309.434C428.245 309.434 429.217 309.124 429.934 308.503C430.65 307.881 431.009 307.061 431.009 306.042C431.009 304.975 430.642 304.162 429.91 303.605C429.177 303.031 428.213 302.745 427.019 302.745ZM435.569 297.393C435.569 296.31 435.895 295.45 436.548 294.813C437.201 294.16 438.037 293.833 439.057 293.833C440.076 293.833 440.912 294.16 441.565 294.813C442.218 295.45 442.545 296.31 442.545 297.393C442.545 298.492 442.218 299.368 441.565 300.021C440.912 300.658 440.076 300.977 439.057 300.977C438.037 300.977 437.201 300.658 436.548 300.021C435.895 299.368 435.569 298.492 435.569 297.393ZM449.521 294.096L439.845 310.772H437.695L447.371 294.096H449.521ZM439.057 295.171C438.515 295.171 438.085 295.362 437.767 295.744C437.464 296.111 437.313 296.66 437.313 297.393C437.313 298.126 437.464 298.683 437.767 299.065C438.085 299.448 438.515 299.639 439.057 299.639C439.598 299.639 440.028 299.448 440.347 299.065C440.666 298.667 440.825 298.11 440.825 297.393C440.825 296.66 440.666 296.111 440.347 295.744C440.028 295.362 439.598 295.171 439.057 295.171ZM444.719 307.475C444.719 306.376 445.046 305.508 445.699 304.871C446.352 304.218 447.188 303.891 448.207 303.891C449.227 303.891 450.055 304.218 450.692 304.871C451.345 305.508 451.672 306.376 451.672 307.475C451.672 308.558 451.345 309.426 450.692 310.079C450.055 310.732 449.227 311.059 448.207 311.059C447.188 311.059 446.352 310.74 445.699 310.103C445.046 309.45 444.719 308.574 444.719 307.475ZM448.183 305.253C447.642 305.253 447.212 305.444 446.893 305.827C446.575 306.193 446.415 306.743 446.415 307.475C446.415 308.192 446.575 308.741 446.893 309.124C447.212 309.49 447.642 309.673 448.183 309.673C448.725 309.673 449.155 309.49 449.474 309.124C449.792 308.741 449.951 308.192 449.951 307.475C449.951 306.743 449.792 306.193 449.474 305.827C449.155 305.444 448.725 305.253 448.183 305.253Z" fill="white"/>
<path d="M426.798 347.6C453.955 347.6 475.969 325.586 475.969 298.43C475.969 271.273 453.955 249.259 426.798 249.259C399.642 249.259 377.627 271.273 377.627 298.43C377.627 325.586 399.642 347.6 426.798 347.6Z" stroke="white" stroke-width="15" stroke-miterlimit="10" stroke-linecap="round"/>
<path d="M475.969 298.429C475.953 311.46 470.765 323.95 461.545 333.158C452.326 342.366 439.828 347.538 426.798 347.538C413.768 347.538 401.271 342.366 392.051 333.158C382.832 323.95 377.644 311.46 377.627 298.429" stroke="#96BAFD" stroke-width="15" stroke-linecap="round" stroke-linejoin="round"/>
<path d="M426.798 249.259C433.256 249.259 439.65 250.53 445.615 253.001C451.581 255.473 457.002 259.094 461.567 263.66C466.133 268.226 469.755 273.647 472.226 279.613C474.697 285.578 475.969 291.972 475.969 298.43" stroke="#FEBB94" stroke-width="15" stroke-linecap="round" stroke-linejoin="round"/>
<path d="M369.327 198.438H402.009" stroke="white" stroke-width="7.4328" stroke-miterlimit="10" stroke-linecap="round"/>
<path opacity="0.4" d="M369.327 213.69H436.868" stroke="white" stroke-width="7.4328" stroke-miterlimit="10" stroke-linecap="round"/>
<path d="M1083.91 858.817H361.342V876.975H1083.91V858.817Z" fill="#1C85E8"/>
<circle cx="367" cy="397" r="3" fill="#5661AE"/>
<defs>
<linearGradient id="paint0_linear" x1="635.5" y1="154.5" x2="709.953" y2="1218.47" gradientUnits="userSpaceOnUse">
<stop stop-color="white"/>
<stop offset="1" stop-color="#94B9FF"/>
</linearGradient>
<linearGradient id="paint1_linear" x1="668.445" y1="83.6383" x2="727.69" y2="720.31" gradientUnits="userSpaceOnUse">
<stop stop-color="white"/>
<stop offset="1" stop-color="#94B9FF"/>
</linearGradient>
</defs>
</svg>
