<svg width="1440" height="1024" viewBox="0 0 1440 1024" fill="none" xmlns="http://www.w3.org/2000/svg">
<rect width="1440" height="1024" fill="white"/>
<g clip-path="url(#clip0)">
<path d="M720.103 969.224C1013.98 969.224 1252.21 963.138 1252.21 955.63C1252.21 948.123 1013.98 942.036 720.103 942.036C426.231 942.036 188 948.123 188 955.63C188 963.138 426.231 969.224 720.103 969.224Z" fill="#F5F8FF"/>
<path d="M858.581 121H370.422C363.171 121 357.292 126.879 357.292 134.13V455.46C357.292 462.712 363.171 468.59 370.422 468.59H858.581C865.833 468.59 871.711 462.712 871.711 455.46V134.13C871.711 126.879 865.833 121 858.581 121Z" fill="url(#paint0_linear)"/>
<path d="M847.63 347.39H756.674C753.3 347.39 750.565 350.125 750.565 353.499V452.208C750.565 455.582 753.3 458.317 756.674 458.317H847.63C851.004 458.317 853.739 455.582 853.739 452.208V353.499C853.739 350.125 851.004 347.39 847.63 347.39Z" fill="#FEBB94"/>
<path d="M510.104 346.351H378.546C375.689 346.351 373.373 348.667 373.373 351.524V453.143C373.373 456.001 375.689 458.317 378.546 458.317H510.104C512.961 458.317 515.277 456.001 515.277 453.143V351.524C515.277 348.667 512.961 346.351 510.104 346.351Z" fill="white"/>
<path d="M734.282 346.351H532.207C528.692 346.351 525.842 349.201 525.842 352.716V451.952C525.842 455.467 528.692 458.317 532.207 458.317H734.282C737.797 458.317 740.647 455.467 740.647 451.952V352.716C740.647 349.201 737.797 346.351 734.282 346.351Z" fill="white"/>
<path d="M845.573 166.398H662.594C658.084 166.398 654.428 170.054 654.428 174.564V328.197C654.428 332.706 658.084 336.362 662.594 336.362H845.573C850.083 336.362 853.739 332.706 853.739 328.197V174.564C853.739 170.054 850.083 166.398 845.573 166.398Z" fill="#1C85E8"/>
<path d="M618.38 512.194C629.564 499.838 626.394 496.531 631.638 489.234C636.787 482.121 635.653 461.174 640.569 465.166C645.484 469.157 645.512 476.657 645.512 476.657C650.911 470.845 657.355 459.32 666.782 460.073C676.21 460.827 676.332 463.88 680.477 469.337C691.464 484.01 669.897 496.982 665.423 502.813C662.57 506.456 645.805 515.64 643.626 518.002L634.283 526.415L618.38 512.194Z" fill="#FFCCB3"/>
<path d="M654.428 479.714L670.382 461.905" stroke="#EF6A77" stroke-width="1.07832" stroke-linecap="round"/>
<path d="M660.896 484.757L677.511 468.59" stroke="#EF6A77" stroke-width="1.07832" stroke-linecap="round"/>
<path d="M668.645 490.474L678.296 480.586" stroke="#EF6A77" stroke-width="1.07832" stroke-linecap="round"/>
<path d="M450.862 612.167L357.292 948.062H376.353L484.506 612.167H450.862Z" fill="#D1E8F7"/>
<path d="M450.862 612.167L443.993 636.828L479.844 626.646L484.506 612.167H450.862Z" fill="#5CA4E6"/>
<path d="M1115.74 879.618L1065.05 947.003C1063.86 948.591 1062.08 949.639 1060.12 949.917C1058.15 950.195 1056.15 949.681 1054.57 948.486L1049.86 944.947L1109.55 865.591L1114.26 869.13C1115.85 870.324 1116.89 872.1 1117.17 874.067C1117.45 876.034 1116.94 878.031 1115.74 879.618Z" fill="#5661AE"/>
<path d="M1067.93 840.158L1086.2 855.011L1067.64 883.66L1047.03 867.933L1067.93 840.158Z" fill="#BC775C"/>
<path d="M1076.04 847.395L1053.28 872.224L1047.74 867.855L1069.06 841.662L1076.04 847.395Z" fill="#93523E" stroke="#93523E"/>
<path d="M1083.75 853.169C1083.75 853.169 1078.62 871.217 1061.71 880.462L1046.44 940.164C1046.93 943.591 1050.76 945.792 1053.3 946.608C1053.86 946.784 1054.46 946.782 1055.02 946.601C1055.58 946.421 1056.06 946.072 1056.41 945.601L1110.6 873.567C1111.5 872.365 1111.9 870.857 1111.71 869.365C1111.51 867.874 1110.74 866.518 1109.55 865.591C1104.82 861.879 1097.55 856.283 1094.41 854.363C1089.54 851.394 1086.08 850.707 1083.75 853.169Z" fill="#1C85E8"/>
<path d="M1058.18 892.842L1066.87 890.978C1067.19 890.91 1067.52 890.921 1067.83 891.01C1068.14 891.099 1068.42 891.264 1068.66 891.489C1068.89 891.714 1069.07 891.994 1069.17 892.302C1069.27 892.611 1069.29 892.94 1069.23 893.259C1069.16 893.651 1068.98 894.013 1068.7 894.298C1068.42 894.582 1068.07 894.777 1067.68 894.856L1057.01 897.009L1058.18 892.842Z" fill="white"/>
<path d="M1056.13 902.302L1064.77 900.417C1065.09 900.349 1065.42 900.36 1065.73 900.449C1066.04 900.538 1066.33 900.703 1066.56 900.928C1066.8 901.153 1066.97 901.433 1067.07 901.741C1067.17 902.05 1067.19 902.379 1067.14 902.698C1067.07 903.09 1066.88 903.452 1066.6 903.737C1066.33 904.022 1065.97 904.216 1065.58 904.295L1055.06 906.477L1056.13 902.302Z" fill="white"/>
<path d="M1053.49 912.601L1062.04 910.692C1062.36 910.624 1062.69 910.635 1063 910.724C1063.31 910.813 1063.6 910.977 1063.83 911.203C1064.06 911.428 1064.24 911.707 1064.34 912.016C1064.44 912.325 1064.46 912.653 1064.4 912.973C1064.33 913.365 1064.15 913.727 1063.87 914.011C1063.59 914.296 1063.24 914.49 1062.85 914.569L1052.45 916.667L1053.49 912.601Z" fill="white"/>
<path d="M894.212 761.627L1038.88 878.182L1071.88 839.721L945.392 721.051L894.212 761.627Z" fill="#1F2D49"/>
<path d="M971.808 745.833V824.144L1038.88 878.182L1048.51 817.794L971.808 745.833Z" fill="#0D1B33"/>
<path d="M907.05 547.348L883.27 736.976H949.757L1007.51 548.299L907.05 547.348Z" fill="#1F2D49"/>
<path d="M964.138 689.999L975.305 595.926H1002.76L964.138 689.999Z" fill="#0D1B33"/>
<path d="M1023.82 951.314H939.498C937.512 951.314 935.606 950.525 934.202 949.12C932.797 947.715 932.008 945.81 932.008 943.823V937.936H1031.31V943.823C1031.31 945.81 1030.52 947.715 1029.12 949.12C1027.71 950.525 1025.81 951.314 1023.82 951.314Z" fill="#5661AE"/>
<path d="M1026.61 889.381L1025.73 912.916L991.671 915.3L991.854 889.381H1026.61Z" fill="#BC775C"/>
<path d="M1025.71 900.219L992.181 896.953L992.342 889.9L1026.09 891.191L1025.71 900.219Z" fill="#93523E" stroke="#93523E"/>
<path d="M1025.73 909.851C1025.73 909.851 1008.22 916.597 990.667 908.644L933.775 932.328C931.327 934.776 931.871 939.158 932.749 941.683C932.944 942.236 933.307 942.714 933.786 943.052C934.266 943.389 934.839 943.569 935.425 943.566H1025.56C1027.07 943.567 1028.51 942.978 1029.59 941.925C1030.66 940.872 1031.28 939.44 1031.31 937.936C1031.43 931.918 1031.53 922.749 1031.18 919.08C1030.63 913.409 1029.09 910.226 1025.73 909.851Z" fill="#1C85E8"/>
<path d="M978.648 913.261L985.361 919.085C985.606 919.298 985.795 919.568 985.912 919.87C986.028 920.173 986.068 920.5 986.029 920.823C985.989 921.145 985.871 921.452 985.684 921.718C985.498 921.984 985.249 922.199 984.96 922.346C984.605 922.527 984.204 922.596 983.81 922.545C983.415 922.494 983.045 922.325 982.748 922.061L974.614 914.83L978.648 913.261Z" fill="white"/>
<path d="M969.854 917.308L976.558 923.084C976.803 923.297 976.992 923.566 977.109 923.869C977.225 924.172 977.265 924.499 977.226 924.821C977.186 925.144 977.068 925.451 976.881 925.717C976.695 925.983 976.446 926.198 976.157 926.345C975.802 926.526 975.401 926.595 975.007 926.544C974.612 926.493 974.242 926.324 973.944 926.06L965.876 918.964L969.854 917.308Z" fill="white"/>
<path d="M960.041 921.394L966.704 927.076C966.949 927.289 967.138 927.558 967.255 927.861C967.371 928.164 967.411 928.491 967.372 928.814C967.332 929.136 967.214 929.443 967.027 929.709C966.841 929.975 966.592 930.19 966.303 930.337C965.948 930.518 965.547 930.587 965.153 930.536C964.758 930.485 964.388 930.316 964.091 930.052L956.166 923.007L960.041 921.394Z" fill="white"/>
<path d="M1047.85 548.299C1047.3 557.915 1047.3 567.555 1047.85 577.171C1050.06 608.255 1042.99 699.028 1043.05 710.972C1043.1 722.917 1035.24 891.15 1035.24 891.15H987.436C987.436 891.15 975.217 746.569 974.934 730.022C974.652 713.476 971.808 548.979 971.808 548.979L1047.85 548.299Z" fill="#1F2D49"/>
<path d="M905.61 558.83L1047.85 577.171V548.299L906.347 552.952L905.61 558.83Z" fill="#0D1B33"/>
<path d="M916.514 770.219C934.874 770.219 949.757 755.336 949.757 736.976C949.757 718.616 934.874 703.732 916.514 703.732C898.154 703.732 883.271 718.616 883.271 736.976C883.271 755.336 898.154 770.219 916.514 770.219Z" fill="#1F2D49"/>
<path d="M1164.25 595.926H291.49V612.167H1164.25V595.926Z" fill="url(#paint1_linear)"/>
<path fill-rule="evenodd" clip-rule="evenodd" d="M710.291 930.966C697.395 926.409 684.103 921.712 671.85 922.583C671.573 922.602 671.305 922.68 671.062 922.813C670.819 922.945 670.607 923.129 670.443 923.352C670.278 923.574 670.163 923.83 670.107 924.101C670.051 924.372 670.054 924.652 670.117 924.922L675.249 946.6C675.354 947.047 675.618 947.44 675.991 947.707C676.364 947.974 676.821 948.097 677.278 948.053L760.589 940.008C766.732 939.415 769.696 935.777 770.136 930.764C770.148 930.592 770.11 930.42 770.027 930.269C769.944 930.117 769.819 929.994 769.667 929.912C769.515 929.83 769.343 929.793 769.171 929.807C768.999 929.82 768.834 929.883 768.697 929.988C759.504 936.882 747.978 939.905 736.585 938.41C728.36 937.351 719.425 934.194 710.291 930.966Z" fill="#5661AE"/>
<path fill-rule="evenodd" clip-rule="evenodd" d="M665.223 868.418C665.223 868.418 673.817 902.484 674.058 906.14C674.079 908.171 673.95 910.201 673.673 912.214C673.289 915.831 672.862 919.862 673.504 922.506C685.294 922.14 697.974 926.619 710.291 930.97C719.425 934.196 728.358 937.352 736.584 938.41C747.427 939.832 758.412 937.167 767.397 930.932C767.022 924.711 761.122 919.467 750.239 919.573C730.732 919.762 719.936 919.412 709.175 906.277C701.527 896.943 697.837 857.568 697.837 857.568L665.223 868.418Z" fill="#FFCCB3"/>
<path fill-rule="evenodd" clip-rule="evenodd" d="M706.686 900.837C703.092 901.678 688.792 904.961 674.84 907.232C672.129 907.674 671.269 913.273 673.318 916.056C674.731 918.113 675.975 920.281 677.038 922.538C681.899 922.825 686.717 923.615 691.415 924.894C688.937 919.583 691.587 916.108 696.697 914.852C700.732 913.86 710.47 913.691 715.511 913.673C715.788 913.672 716.059 913.591 716.292 913.441C716.524 913.29 716.709 913.077 716.824 912.825C716.939 912.573 716.98 912.293 716.941 912.019C716.903 911.745 716.786 911.487 716.606 911.277L708.121 901.31C707.949 901.107 707.724 900.955 707.47 900.871C707.217 900.788 706.946 900.776 706.686 900.837Z" fill="white"/>
<path fill-rule="evenodd" clip-rule="evenodd" d="M757.71 935.998C748.789 939.454 742.549 938.736 742.549 938.736L740.647 919.032L755.998 918.262L757.71 935.998Z" fill="white"/>
<path d="M657.107 730.974C671.905 726.536 680.303 710.941 675.864 696.144C671.426 681.346 655.832 672.948 641.034 677.386C626.236 681.825 617.838 697.419 622.277 712.217C626.715 727.015 642.309 735.413 657.107 730.974Z" fill="#FFCCB3"/>
<path d="M657.347 677.457L610.975 661.583L589.391 719.731L649.381 730.175L657.347 677.457Z" fill="#FFCCB3"/>
<path d="M676.799 700.465L700.34 876.385L669.803 886.951L623.64 719.92L676.799 700.465Z" fill="#FFCCB3"/>
<path fill-rule="evenodd" clip-rule="evenodd" d="M580.103 943.163C567.92 936.945 555.364 930.536 543.103 929.783C542.826 929.765 542.549 929.807 542.291 929.907C542.033 930.006 541.799 930.161 541.606 930.359C541.414 930.558 541.266 930.797 541.175 931.058C541.084 931.319 541.05 931.597 541.077 931.873L543.304 954.039C543.35 954.495 543.559 954.92 543.894 955.234C544.228 955.548 544.665 955.73 545.124 955.746L628.769 958.759C634.936 958.982 638.354 955.767 639.452 950.855C639.486 950.686 639.471 950.511 639.409 950.35C639.346 950.189 639.238 950.05 639.099 949.949C638.959 949.847 638.793 949.789 638.621 949.779C638.448 949.77 638.277 949.811 638.127 949.896C628.105 955.518 616.282 956.994 605.185 954.009C597.171 951.875 588.731 947.567 580.103 943.163Z" fill="#5661AE"/>
<path fill-rule="evenodd" clip-rule="evenodd" d="M543.677 875.217C543.677 875.217 547.704 910.119 547.461 913.775C547.213 915.791 546.818 917.786 546.278 919.745C545.42 923.28 544.465 927.219 544.753 929.924C556.488 931.116 568.466 937.229 580.102 943.167C588.731 947.57 597.17 951.876 605.184 954.01C615.745 956.85 626.985 955.656 636.714 950.661C637.163 944.445 632.007 938.469 621.204 937.138C601.843 934.753 591.187 932.982 582.253 918.542C575.902 908.281 577.438 868.763 577.438 868.763L543.677 875.217Z" fill="#FCBA9F"/>
<path fill-rule="evenodd" clip-rule="evenodd" d="M580.503 912.821C576.829 913.181 562.221 914.55 548.091 914.961C545.345 915.041 543.755 920.478 545.42 923.507C546.548 925.732 547.496 928.045 548.252 930.423C553.032 931.349 557.704 932.767 562.192 934.655C560.436 929.063 563.522 925.968 568.752 925.396C572.883 924.945 582.559 926.062 587.558 926.709C587.833 926.744 588.112 926.7 588.362 926.582C588.613 926.464 588.824 926.276 588.971 926.042C589.119 925.807 589.196 925.536 589.194 925.259C589.192 924.982 589.11 924.711 588.959 924.479L581.863 913.48C581.719 913.256 581.516 913.075 581.276 912.959C581.036 912.843 580.768 912.795 580.503 912.821Z" fill="white"/>
<path fill-rule="evenodd" clip-rule="evenodd" d="M626.444 954.405C617.144 956.654 611.054 955.12 611.054 955.12L611.767 935.337L627.086 936.598L626.444 954.405Z" fill="white"/>
<path d="M553.76 737.904C569.014 735.455 579.395 721.105 576.947 705.851C574.499 690.597 560.149 680.216 544.895 682.664C529.641 685.112 519.26 699.462 521.708 714.716C524.156 729.97 538.506 740.352 553.76 737.904Z" stroke="#5CA4E6" stroke-width="1.0969" stroke-miterlimit="10"/>
<path d="M577.304 710.258L577.437 887.746L545.774 894.192L522.043 722.532L577.304 710.258Z" fill="#FCBA9F"/>
<path d="M494.415 645.456C494.415 645.456 485.902 687.118 497.058 704.527C511.18 726.563 528.452 729.938 541.216 730.175L610.178 724.227C610.178 724.227 609.722 684.577 635.263 669.763C635.263 669.763 530.584 631.129 494.415 645.456Z" fill="#5661AE"/>
<path d="M467.868 432.91L462.39 460.887L430.686 458.735L436.76 428.997L467.868 432.91Z" fill="#FFCCB3"/>
<path d="M467.549 434.537L464.888 448.128C464.888 448.128 457.602 441.918 456.195 432.226L467.549 434.537Z" fill="#FCBA9F"/>
<path d="M420.912 466.69C420.912 466.69 428.133 447.849 432.442 450.137C442.684 455.574 457.644 454.566 464.267 451.298C468.236 449.34 468.387 466.69 468.387 466.69L420.912 466.69Z" fill="#FEBB94"/>
<path d="M420.912 466.69L390.488 470.765C389.653 470.877 388.895 471.31 388.374 471.973C387.853 472.635 387.611 473.474 387.699 474.312L408.941 675.829L517.941 665.129L504.451 473.369L468.387 466.69H420.912Z" fill="#FEBB94"/>
<path d="M498.478 524.11L489.976 508.647L492.068 524.11H498.478Z" fill="#FF967C"/>
<path d="M502.56 473.019C514.054 474.782 523.689 482.441 526.908 489.133L555.342 553.908L625.164 498.068L645.013 518.974L582.25 596.516C569.628 613.139 547.795 619.979 532.925 598.302L509.167 560.986L502.56 473.019Z" fill="#FEBB94"/>
<path d="M555.342 553.908L563.286 569.524L569.332 542.718L555.342 553.908Z" fill="#FF967C"/>
<path d="M390.721 470.734C390.721 470.734 382.511 470.589 375.609 482.668C368.706 494.746 340.752 567.91 340.752 567.91C340.752 567.91 327.983 595.519 353.867 596.554H408.049L390.721 470.734Z" fill="#FEBB94"/>
<path d="M396.834 524.11L394.566 513.977L388.858 524.11H396.834Z" fill="#FF967C"/>
<path d="M540.171 730.105H421.841C418.114 730.105 414.512 728.76 411.697 726.318C408.881 723.877 407.041 720.501 406.514 716.812L381.507 541.782C381.194 539.586 381.356 537.348 381.982 535.22C382.608 533.092 383.685 531.124 385.138 529.448C386.591 527.772 388.388 526.428 390.406 525.507C392.424 524.586 394.616 524.11 396.834 524.11H515.165C518.891 524.11 522.493 525.454 525.309 527.896C528.124 530.337 529.964 533.713 530.491 537.402L555.498 712.433C555.812 714.628 555.65 716.866 555.023 718.994C554.397 721.122 553.321 723.09 551.867 724.766C550.414 726.442 548.618 727.786 546.6 728.707C544.582 729.628 542.389 730.105 540.171 730.105Z" fill="#5CA4E6"/>
<path d="M532.195 730.105H622.816C623.594 730.105 624.359 729.899 625.031 729.508C625.704 729.117 626.262 728.556 626.648 727.88C627.034 727.204 627.234 726.439 627.228 725.661C627.223 724.882 627.012 724.12 626.616 723.45C626.307 722.926 625.893 722.472 625.401 722.116C624.908 721.76 624.347 721.51 623.753 721.381L550.394 705.433L532.195 730.105Z" fill="#5CA4E6"/>
<path d="M532.195 730.105H413.865C410.138 730.105 406.536 728.76 403.721 726.318C400.905 723.877 399.065 720.501 398.538 716.812L373.532 541.782C373.218 539.586 373.38 537.348 374.006 535.22C374.632 533.092 375.709 531.124 377.162 529.448C378.615 527.772 380.412 526.428 382.43 525.507C384.448 524.586 386.64 524.11 388.858 524.11H507.189C510.915 524.11 514.517 525.454 517.333 527.896C520.148 530.337 521.988 533.713 522.515 537.402L547.522 712.433C547.836 714.628 547.674 716.866 547.048 718.994C546.421 721.122 545.345 723.09 543.892 724.766C542.438 726.442 540.642 727.786 538.624 728.707C536.606 729.628 534.413 730.105 532.195 730.105Z" fill="url(#paint2_linear)"/>
<path d="M1015.46 569.246C1015.46 569.246 1009.07 581.319 1007.51 582.704C1005.96 584.09 980.278 587.257 975.305 589.038C970.332 590.819 967.957 593.512 967.957 595.926H1028.32C1028.32 595.926 1029.88 594.47 1031.01 589.829C1032.13 585.189 1034.1 583.221 1034.1 583.221L1015.46 569.246Z" fill="#BC775C"/>
<path d="M928.694 379.049C932.664 359.451 923.328 359.956 920.221 356.84C920.221 356.84 908.565 347.228 899.684 356.188C890.283 365.665 836.395 439.285 836.395 439.285L870.113 470.296L876.45 462.733L892.868 443.153L910.428 422.225L912.609 419.843L936.298 393.012C936.298 393.012 926.449 389.367 928.694 379.049Z" fill="#5661AE"/>
<path d="M942.796 382.389C947.341 368.819 940.025 354.133 926.455 349.588C912.884 345.043 898.199 352.359 893.653 365.929C889.108 379.5 896.425 394.185 909.995 398.73C923.565 403.276 938.251 395.959 942.796 382.389Z" fill="#5661AE"/>
<path d="M912.299 419.739C912.978 415.642 914.339 407.45 915.802 399.984L923.582 363.846C923.582 363.846 902.688 394.726 893.062 416.236C885.934 432.355 877.664 448.783 876.296 462.681L892.712 443.1L910.272 422.173L912.299 419.739Z" fill="#465393"/>
<path d="M802.715 356.401C794.703 341.787 798.553 339.307 795.145 330.992C791.787 322.879 797.749 302.766 792.041 305.508C786.334 308.251 784.568 315.539 784.568 315.539C780.664 308.633 777.069 295.928 767.724 294.474C758.379 293.02 757.552 295.961 752.254 300.307C738.163 312.032 756.132 329.652 759.131 336.362C761.062 340.568 775.239 353.391 776.81 356.193L783.946 366.545L802.715 356.401Z" fill="#BC775C"/>
<path d="M775.185 316.445L763.798 295.42" stroke="#93523E" stroke-width="1.07832" stroke-linecap="round"/>
<path d="M767.724 319.849L755.313 300.269" stroke="#93523E" stroke-width="1.07832" stroke-linecap="round"/>
<path d="M758.86 323.613L751.766 311.755" stroke="#93523E" stroke-width="1.07832" stroke-linecap="round"/>
<path d="M777.999 334.953C778.059 327.673 782.428 318.864 782.428 318.864" stroke="#93523E" stroke-width="1.07832" stroke-linecap="round"/>
<path d="M870.398 438.699L801.834 347.39C801.397 346.854 800.777 346.498 800.093 346.392C799.409 346.285 798.71 346.436 798.131 346.814L780.177 358.688C779.324 359.266 778.716 360.14 778.472 361.141C778.228 362.142 778.364 363.199 778.855 364.105L833.993 465.79L870.398 438.699Z" fill="#5661AE"/>
<path d="M853.739 477.265C866.42 477.265 876.7 466.985 876.7 454.304C876.7 441.623 866.42 431.343 853.739 431.343C841.058 431.343 830.778 441.623 830.778 454.304C830.778 466.985 841.058 477.265 853.739 477.265Z" fill="#5661AE"/>
<path d="M949.675 336.2C949.675 336.2 916.199 346.849 909.594 349.611C902.989 352.374 902.548 363.426 902.108 371.254C901.8 376.739 907.991 466.805 908.398 518.967C908.485 530.111 906.407 537.182 905.072 543.375C903.738 549.569 905.072 552.94 905.072 552.94L1048.51 554.223C1048.51 554.223 1044.21 372.986 1043.33 366.54C1042.45 360.093 1049.37 354.541 1041.87 351.296L987.097 336.2H949.675Z" fill="white"/>
<path d="M931.675 342.013C931.675 342.013 937.14 367.013 940.721 387.021C944.302 407.029 945.392 572.665 945.392 572.665C945.392 572.665 903.477 564.516 897.8 554.887C892.122 545.257 903.058 501.992 903.909 462.681C904.761 423.37 896.486 362.364 905.174 351.78C905.174 351.781 907.402 349.572 931.675 342.013Z" fill="#5661AE"/>
<path d="M1002.12 340.406C1002.12 340.406 982.233 381.842 983.449 394.471C984.666 407.1 984.735 514.801 983.449 537.287C982.651 550.966 980.567 564.54 977.225 577.828C977.225 577.828 1031.48 581.67 1052.44 575.108C1052.44 575.108 1062.4 512.452 1055.86 490.069C1049.33 467.686 1044.34 351.356 1044.34 351.356L1002.12 340.406Z" fill="#5661AE"/>
<path d="M1016.8 396.089C1016.8 396.089 1018.83 471.184 1018.41 496.215C1018.15 511.813 1000.31 518.419 1000.26 527.45C1000.23 532.793 1014.34 526.538 1018.15 532.062C1021.95 537.585 1015.45 554.887 1015.45 554.887L1048.51 554.223L1061.76 489.954L1033.85 392.224L1016.8 396.089Z" fill="#465393"/>
<path d="M950.363 319.462L947.258 354.459C947.258 354.459 946.43 359.895 955.871 361.615C963.368 362.98 978.947 354.171 982.464 351.269C990.28 344.819 991.002 340.916 990.176 337.927C988.993 333.644 985.126 303.464 985.126 303.464L950.363 319.462Z" fill="#BC775C"/>
<path d="M948.324 348.103L950.237 326.532L966.901 318.301L948.324 348.103Z" fill="#93523E" stroke="#93523E"/>
<path d="M931.839 253.224C931.839 253.224 925.455 281.817 924.606 301.29C923.749 320.937 930.769 324.678 939.473 326.145C946.338 327.302 957.017 327.386 963.733 324.033C975.977 317.918 996.08 303.077 998.711 300.198C1002.79 295.74 1002.51 275.857 986.948 270.94C975.631 267.363 946.776 236.998 931.839 253.224Z" fill="#BC775C"/>
<path d="M931.902 256.273C941.185 259.912 958.657 257.521 968.254 260.636C977.838 263.759 969.117 267.056 969.535 276.315C969.804 282.312 970.26 293.772 973.94 293.62C977.62 293.469 979.788 280.454 987.549 280.95C995.308 281.456 998.968 284.77 998.797 289.733C998.63 294.687 993.053 299.004 988.654 301.296C983.147 304.148 980.874 302.952 980.874 302.952C980.874 302.952 987.072 325.772 988.008 324.868C988.008 324.868 994.693 321.095 995.899 314.49C995.899 314.49 1004.77 312.568 1002.81 303.695C1002.81 303.695 1008.33 301.922 1005.71 296.785C1005.71 296.785 1019.99 287.183 1012.55 275.433C1012.55 275.433 1019.32 268.677 1011.23 265.82C1011.23 265.82 1021.95 250.158 1006.7 246.819C1006.7 246.819 1007.72 239.447 1000.74 239.728C1000.74 239.728 997.693 227.048 982.462 232.049C982.389 229.51 981.551 227.052 980.057 224.998C978.563 222.944 976.482 221.389 974.089 220.538C965.463 217.064 959.849 221.845 959.849 221.845C959.849 221.845 950.796 214.461 946.029 225.287C946.029 225.287 939.182 221.787 934.049 225.506C928.908 229.213 931.407 236.984 931.407 236.984C931.407 236.984 925.532 235.607 923.388 240.473C920.36 247.32 924.612 249.815 924.612 249.815C924.612 249.815 915.047 261.123 928.498 271.834L931.902 256.273Z" fill="#493212"/>
<path d="M955.264 284.501C955.769 282.188 954.95 280.045 953.435 279.714C951.92 279.383 950.283 280.99 949.778 283.302C949.272 285.614 950.091 287.757 951.606 288.088C953.121 288.419 954.759 286.813 955.264 284.501Z" fill="#080B09"/>
<path d="M934.418 279.806C934.923 277.494 934.105 275.351 932.59 275.02C931.075 274.689 929.437 276.295 928.932 278.608C928.427 280.92 929.245 283.063 930.76 283.394C932.275 283.725 933.913 282.119 934.418 279.806Z" fill="#080B09"/>
<path d="M938.539 285.946C938.539 285.946 941.128 290.932 937.387 291.008C933.813 290.958 931.731 293.055 935.336 296.094" stroke="#93523E" stroke-width="1.07832" stroke-linecap="round"/>
<path d="M935.889 300.704L935.905 300.706L935.921 300.707C938.138 300.866 942.565 301.185 945.508 301.446L945.508 301.446L945.513 301.446C945.599 301.453 945.682 301.483 945.752 301.533C945.822 301.584 945.876 301.652 945.91 301.732C945.944 301.811 945.955 301.898 945.943 301.983C945.931 302.065 945.898 302.143 945.846 302.208C945.199 302.921 944.347 303.769 943.4 304.5C942.443 305.239 941.422 305.833 940.439 306.069C939.477 306.301 938.57 306.188 937.758 305.537C936.922 304.865 936.122 303.572 935.525 301.297L935.515 301.258L935.499 301.221C935.472 301.161 935.462 301.094 935.47 301.029C935.477 300.963 935.502 300.901 935.542 300.848C935.582 300.795 935.635 300.754 935.696 300.729C935.757 300.703 935.823 300.695 935.889 300.704Z" fill="#93523E" stroke="#93523E"/>
<path d="M962.528 276.881L962.32 277.3C962.071 277.937 961.58 278.449 960.955 278.726C960.329 279.002 959.62 279.02 958.982 278.775L948.119 274.279C947.585 274.083 947.143 273.693 946.882 273.187C946.621 272.681 946.559 272.095 946.709 271.546C946.786 271.205 946.933 270.884 947.143 270.605C947.352 270.325 947.618 270.094 947.924 269.925C948.229 269.756 948.567 269.653 948.915 269.625C949.263 269.596 949.613 269.641 949.942 269.758L961.012 273.836C961.315 273.931 961.595 274.087 961.837 274.293C962.078 274.5 962.275 274.753 962.417 275.037C962.558 275.321 962.641 275.631 962.66 275.948C962.679 276.265 962.634 276.582 962.528 276.881Z" fill="#080B09"/>
<path d="M925.875 266.768L937.646 265.975C937.995 265.955 938.343 266.01 938.669 266.136C938.995 266.262 939.29 266.455 939.536 266.703C939.781 266.951 939.972 267.249 940.094 267.576C940.216 267.903 940.267 268.252 940.244 268.601C940.234 269.17 940.01 269.715 939.616 270.127C939.223 270.539 938.69 270.788 938.121 270.826L926.432 272.079C925.751 272.134 925.075 271.918 924.553 271.476C924.031 271.035 923.704 270.405 923.644 269.724L923.563 269.264C923.546 268.947 923.592 268.629 923.699 268.331C923.807 268.032 923.974 267.758 924.19 267.525C924.405 267.292 924.666 267.105 924.956 266.975C925.245 266.845 925.558 266.775 925.875 266.768Z" fill="#080B09"/>
<path d="M1045.42 369.364C1030.64 355.889 1026.28 364.158 1022.01 365.223C1022.01 365.223 1007.78 370.284 1010.9 382.507C1014.2 395.441 1049.67 479.498 1049.67 479.498L1094.43 468.902L1090.37 457.18L1082.01 433.035L1073.08 407.218L1072.15 404.122L1061.3 370.014C1061.3 370.014 1053.12 376.591 1045.42 369.364Z" fill="#5661AE"/>
<path d="M1052.7 395.518C1063.57 386.211 1064.84 369.853 1055.53 358.982C1046.22 348.11 1029.86 346.842 1018.99 356.149C1008.12 365.456 1006.85 381.814 1016.16 392.685C1025.47 403.557 1041.82 404.825 1052.7 395.518Z" fill="#5661AE"/>
<path d="M1049.33 467.686L1009.74 574.79C1009.53 575.448 1009.57 576.162 1009.85 576.794C1010.13 577.426 1010.63 577.932 1011.27 578.214L1030.97 586.869C1031.92 587.273 1032.99 587.31 1033.96 586.973C1034.93 586.636 1035.75 585.949 1036.24 585.045L1091.83 483.603L1049.33 467.686Z" fill="#5661AE"/>
<path d="M1071.47 496.192C1084.15 496.192 1094.43 485.912 1094.43 473.231C1094.43 460.55 1084.15 450.27 1071.47 450.27C1058.79 450.27 1048.51 460.55 1048.51 473.231C1048.51 485.912 1058.79 496.192 1071.47 496.192Z" fill="#5661AE"/>
<path d="M451.502 730.105H537.767C537.767 739.622 533.987 748.749 527.257 755.479C520.527 762.208 511.4 765.989 501.883 765.989H487.387C477.87 765.989 468.742 762.208 462.013 755.479C455.283 748.749 451.502 739.622 451.502 730.105Z" fill="#E7EFFF"/>
<path d="M496.55 765.989H492.72V938.481H496.55V765.989Z" fill="#5CA4E6"/>
<path d="M492.72 938.481L440.138 955.52H548.316L496.55 938.481H492.72Z" fill="#5CA4E6"/>
<path d="M321.906 612.167L228.336 948.062H247.397L355.549 612.167H321.906Z" fill="#E7EFFF"/>
<path d="M321.906 612.167L315.036 636.828L350.887 626.646L355.549 612.167H321.906Z" fill="#96BAFD"/>
<path d="M1119.57 612.167L1213.14 948.062H1194.08L1085.92 612.167H1119.57Z" fill="#D1E8F7"/>
<path d="M1119.57 612.167L1124.82 631.021L1090.77 627.218L1085.92 612.167H1119.57Z" fill="#5CA4E6"/>
<path d="M469.307 373.601C469.307 373.601 481.889 396.304 486.253 405.674C490.617 415.043 492.109 425.151 484.841 429.803C474.953 436.134 464.011 434.727 452.219 433.41C442.011 432.269 429.22 403.546 430.787 396.494C432.354 389.442 450.106 361.155 469.307 373.601Z" fill="#FFCCB3"/>
<path d="M478.688 399.623C479.605 398.882 479.463 397.187 478.371 395.837C477.279 394.487 475.652 393.992 474.735 394.733C473.819 395.474 473.961 397.169 475.053 398.519C476.144 399.87 477.772 400.364 478.688 399.623Z" fill="#080B09"/>
<path d="M465.135 396.171L474.735 389.344C474.501 389.072 474.212 388.852 473.887 388.698C473.563 388.545 473.21 388.461 472.851 388.452C472.492 388.443 472.136 388.51 471.804 388.647C471.472 388.785 471.173 388.99 470.926 389.25L464.566 395.698C464.34 395.881 464.796 396.445 465.135 396.171Z" fill="#080B09"/>
<path d="M484.437 413.714C483.148 414.516 481.661 414.94 480.143 414.94C478.625 414.94 477.137 414.516 475.848 413.714" stroke="#EF6A77" stroke-miterlimit="10" stroke-linecap="round"/>
<path d="M460.283 387.218L480.84 376.821C480.84 376.821 473.385 352.573 446.076 350.04C426.041 348.181 407.419 359.227 400.203 376.483C392.986 393.74 399.157 422.171 417.459 428.997C432.94 434.77 432.442 450.137 432.442 450.137L455.11 420.41C455.11 420.41 439.427 412.78 443.188 403.467C448.286 390.841 461.098 405.437 461.098 405.437L452.429 380.206L460.283 387.218Z" fill="#1F2D49"/>
<path d="M482.008 397.178C482.008 397.178 485.437 401.645 487.512 402.507C489.586 403.369 487.729 406.542 486.347 406.983C484.965 407.424 481.22 399.287 482.008 397.178Z" fill="#FFCCB3"/>
<path d="M397.26 421.536C410.713 421.536 421.618 410.631 421.618 397.178C421.618 383.726 410.713 372.82 397.26 372.82C383.808 372.82 372.902 383.726 372.902 397.178C372.902 410.631 383.808 421.536 397.26 421.536Z" fill="#0D1B33"/>
<path d="M394.566 422.606C408.019 422.606 418.924 411.701 418.924 398.248C418.924 384.796 408.019 373.89 394.566 373.89C381.114 373.89 370.208 384.796 370.208 398.248C370.208 411.701 381.114 422.606 394.566 422.606Z" fill="#1F2D49"/>
<path d="M633.476 166.398H381.487C377.006 166.398 373.373 170.031 373.373 174.512V328.086C373.373 332.567 377.006 336.2 381.487 336.2H633.476C637.957 336.2 641.59 332.567 641.59 328.086V174.512C641.59 170.031 637.957 166.398 633.476 166.398Z" fill="#FEBB94"/>
<path d="M547.68 370.477H561.153" stroke="#D4DCF4" stroke-width="12" stroke-miterlimit="10" stroke-linecap="round"/>
<path d="M590.807 370.477H716.263" stroke="#5661AE" stroke-width="12" stroke-miterlimit="10" stroke-linecap="round"/>
<path d="M547.68 399.986H561.153" stroke="#D4DCF4" stroke-width="12" stroke-miterlimit="10" stroke-linecap="round"/>
<path d="M590.807 399.986H649.219" stroke="#5661AE" stroke-width="12" stroke-miterlimit="10" stroke-linecap="round"/>
<path d="M547.68 430.012H561.153" stroke="#D4DCF4" stroke-width="12" stroke-miterlimit="10" stroke-linecap="round"/>
<path d="M590.807 430.012H691.259" stroke="#5661AE" stroke-width="12" stroke-miterlimit="10" stroke-linecap="round"/>
<path d="M391.209 257.498C391.209 257.498 413.415 252.821 420.458 263.62C427.501 274.419 434.544 294.706 450.509 292.075C466.473 289.445 474.178 236.384 490.142 236.853C506.106 237.323 503.567 272.072 520.94 272.541C538.313 273.011 533.471 253.121 545.07 253.665C559.141 254.324 557.564 295.549 575.876 296.018C594.188 296.488 592.31 241.552 620.013 242.491" stroke="white" stroke-width="6.35676" stroke-miterlimit="10" stroke-linecap="round"/>
<path d="M398.29 192.103H442.624" stroke="white" stroke-width="10.0826" stroke-miterlimit="10" stroke-linecap="round"/>
<path opacity="0.4" d="M398.29 212.793H489.909" stroke="white" stroke-width="10.0826" stroke-miterlimit="10" stroke-linecap="round"/>
<path opacity="0.4" d="M754.084 280.202C770.001 280.202 782.905 267.298 782.905 251.38C782.905 235.463 770.001 222.559 754.084 222.559C738.166 222.559 725.262 235.463 725.262 251.38C725.262 267.298 738.166 280.202 754.084 280.202Z" fill="white"/>
<path d="M745.167 243.445V261.738C745.167 262.245 745.299 262.744 745.55 263.184C745.802 263.625 746.163 263.993 746.599 264.251C747.035 264.51 747.531 264.65 748.038 264.659C748.546 264.668 749.046 264.545 749.491 264.301L766.213 255.155C766.673 254.903 767.056 254.533 767.324 254.082C767.591 253.631 767.732 253.116 767.732 252.592C767.732 252.067 767.591 251.553 767.324 251.102C767.056 250.651 766.673 250.28 766.213 250.028L749.491 240.882C749.046 240.639 748.545 240.515 748.038 240.524C747.531 240.533 747.035 240.674 746.599 240.932C746.163 241.191 745.802 241.558 745.551 241.999C745.3 242.44 745.167 242.938 745.167 243.445Z" fill="white"/>
<path d="M370.828 121H858.175C861.765 121 865.208 122.426 867.747 124.965C870.285 127.503 871.711 130.946 871.711 134.536V154.927H357.292V134.536C357.292 130.946 358.718 127.503 361.257 124.965C363.795 122.426 367.238 121 370.828 121V121Z" fill="#5CA4E6"/>
<path d="M1164.25 595.926H1020.57V612.167H1164.25V595.926Z" fill="#96BAFD"/>
<path d="M990.611 612.167L1084.18 948.062H1065.12L956.968 612.167H990.611Z" fill="#E7EFFF"/>
<path d="M990.611 612.167L997.481 636.828L961.63 626.646L956.968 612.167H990.611Z" fill="#5CA4E6"/>
<path d="M1111.76 323.175C1150.74 323.175 1182.34 291.574 1182.34 252.592C1182.34 213.609 1150.74 182.008 1111.76 182.008C1072.77 182.008 1041.17 213.609 1041.17 252.592C1041.17 291.574 1072.77 323.175 1111.76 323.175Z" fill="#FEBB94"/>
<path d="M1136.91 250.876C1136.91 246.311 1135.67 241.831 1133.32 237.917C1130.97 234.003 1127.6 230.802 1123.57 228.657C1119.54 226.511 1115 225.502 1110.44 225.737C1105.88 225.972 1101.47 227.442 1097.69 229.991C1093.9 232.54 1090.88 236.07 1088.94 240.205C1087 244.34 1086.23 248.923 1086.7 253.465C1087.17 258.006 1088.86 262.334 1091.6 265.985C1094.34 269.637 1098.03 272.475 1102.26 274.195V282.455H1121.22V274.195C1125.86 272.308 1129.83 269.082 1132.62 264.928C1135.42 260.775 1136.91 255.882 1136.91 250.876V250.876Z" stroke="white" stroke-width="3.71807" stroke-linecap="round" stroke-linejoin="round"/>
<path d="M1102.26 282.455H1121.29V286.506C1121.29 288.222 1120.61 289.868 1119.39 291.082C1118.18 292.296 1116.53 292.978 1114.82 292.978H1108.73C1107.01 292.978 1105.37 292.296 1104.15 291.082C1102.94 289.868 1102.26 288.222 1102.26 286.506V282.455V282.455Z" stroke="white" stroke-width="3.71807" stroke-linecap="round" stroke-linejoin="round"/>
<path d="M1107.49 282.455V253.558C1107.49 252.866 1107.21 252.203 1106.72 251.714C1106.23 251.225 1105.57 250.95 1104.88 250.95H1104.8C1104.11 250.95 1103.44 251.225 1102.96 251.714C1102.47 252.203 1102.19 252.866 1102.19 253.558V253.558C1102.19 253.9 1102.26 254.239 1102.39 254.556C1102.52 254.872 1102.71 255.159 1102.96 255.402C1103.2 255.644 1103.49 255.836 1103.8 255.967C1104.12 256.098 1104.46 256.165 1104.8 256.165H1118.68C1119.02 256.165 1119.36 256.098 1119.68 255.967C1119.99 255.836 1120.28 255.644 1120.52 255.402C1120.77 255.159 1120.96 254.872 1121.09 254.556C1121.22 254.239 1121.29 253.9 1121.29 253.558V253.558C1121.29 252.866 1121.01 252.203 1120.52 251.714C1120.03 251.225 1119.37 250.95 1118.68 250.95H1118.45C1117.76 250.95 1117.1 251.225 1116.61 251.714C1116.12 252.203 1115.84 252.866 1115.84 253.558V282.455" stroke="white" stroke-width="3.71807" stroke-linecap="round" stroke-linejoin="round"/>
<path d="M1111.77 212.205V218.665" stroke="white" stroke-width="3.71807" stroke-linecap="round" stroke-linejoin="round"/>
<path d="M1088.48 218.428L1091.71 224.023" stroke="white" stroke-width="3.71807" stroke-linecap="round" stroke-linejoin="round"/>
<path d="M1071.43 235.461L1077.02 238.691" stroke="white" stroke-width="3.71807" stroke-linecap="round" stroke-linejoin="round"/>
<path d="M1152.08 235.516L1146.49 238.746" stroke="white" stroke-width="3.71807" stroke-linecap="round" stroke-linejoin="round"/>
<path d="M1135.05 218.46L1131.82 224.054" stroke="white" stroke-width="3.71807" stroke-linecap="round" stroke-linejoin="round"/>
<path d="M336.066 166.398H283.699C280.043 166.398 277.08 169.362 277.08 173.018V225.384C277.08 229.04 280.043 232.004 283.699 232.004H336.066C339.722 232.004 342.685 229.04 342.685 225.384V173.018C342.685 169.362 339.722 166.398 336.066 166.398Z" fill="#1C85E8"/>
<path d="M336.066 247.399H283.699C280.043 247.399 277.08 250.363 277.08 254.018V306.385C277.08 310.041 280.043 313.004 283.699 313.004H336.066C339.722 313.004 342.685 310.041 342.685 306.385V254.018C342.685 250.363 339.722 247.399 336.066 247.399Z" fill="#1C85E8"/>
<path d="M331.231 271.359C331.197 269.58 330.859 267.819 330.234 266.152C329.681 264.726 328.837 263.431 327.756 262.349C326.674 261.268 325.379 260.424 323.953 259.871C322.286 259.247 320.525 258.909 318.746 258.874C316.448 258.765 315.719 258.739 309.891 258.739C304.063 258.739 303.333 258.765 301.044 258.865C299.264 258.9 297.504 259.237 295.837 259.863C294.411 260.415 293.116 261.259 292.034 262.341C290.953 263.422 290.109 264.718 289.556 266.144C288.931 267.81 288.594 269.571 288.559 271.351C288.45 273.649 288.424 274.378 288.424 280.206C288.424 286.034 288.45 286.763 288.55 289.052C288.585 290.832 288.922 292.593 289.548 294.26C290.101 295.686 290.944 296.981 292.026 298.063C293.107 299.144 294.402 299.988 295.829 300.54C297.495 301.165 299.256 301.503 301.036 301.538C303.325 301.639 304.055 301.664 309.883 301.664C315.71 301.664 316.44 301.639 318.729 301.538C320.509 301.503 322.27 301.166 323.936 300.54C325.363 299.989 326.658 299.145 327.74 298.064C328.822 296.982 329.665 295.686 330.217 294.26C330.842 292.593 331.179 290.832 331.215 289.052C331.315 286.763 331.341 286.034 331.341 280.206C331.341 274.378 331.332 273.649 331.231 271.359ZM327.366 288.885C327.352 290.245 327.102 291.593 326.628 292.868C326.27 293.794 325.723 294.634 325.021 295.336C324.319 296.038 323.478 296.585 322.553 296.943C321.277 297.417 319.93 297.666 318.57 297.681C316.306 297.782 315.627 297.807 309.899 297.807C304.172 297.807 303.485 297.782 301.229 297.681C299.868 297.667 298.521 297.418 297.246 296.943C296.314 296.601 295.471 296.054 294.781 295.341C294.07 294.649 293.523 293.807 293.179 292.876C292.705 291.601 292.456 290.253 292.441 288.893C292.34 286.629 292.315 285.95 292.315 280.223C292.315 274.495 292.34 273.808 292.441 271.552C292.455 270.192 292.704 268.844 293.179 267.569C293.521 266.636 294.071 265.792 294.789 265.104C295.481 264.393 296.323 263.846 297.254 263.502C298.529 263.029 299.877 262.779 301.237 262.764C303.501 262.664 304.181 262.639 309.908 262.639C315.643 262.639 316.322 262.664 318.578 262.764C319.938 262.778 321.286 263.028 322.561 263.502C323.493 263.844 324.335 264.391 325.026 265.104C325.737 265.796 326.284 266.639 326.628 267.569C327.102 268.845 327.351 270.192 327.366 271.552C327.467 273.816 327.492 274.495 327.492 280.223C327.492 285.95 327.467 286.621 327.366 288.885Z" fill="white"/>
<path d="M309.891 269.179C307.71 269.179 305.578 269.826 303.765 271.038C301.952 272.249 300.538 273.971 299.704 275.986C298.869 278.001 298.651 280.218 299.076 282.357C299.502 284.496 300.552 286.461 302.094 288.003C303.636 289.545 305.601 290.595 307.74 291.021C309.879 291.446 312.096 291.228 314.111 290.393C316.126 289.559 317.848 288.145 319.059 286.332C320.271 284.519 320.918 282.387 320.918 280.206C320.917 277.282 319.755 274.477 317.687 272.41C315.619 270.342 312.815 269.18 309.891 269.179ZM309.891 287.359C308.476 287.359 307.093 286.939 305.917 286.153C304.741 285.367 303.824 284.25 303.283 282.943C302.741 281.636 302.6 280.198 302.876 278.81C303.152 277.423 303.833 276.148 304.833 275.148C305.834 274.148 307.108 273.467 308.496 273.191C309.883 272.915 311.321 273.056 312.628 273.598C313.935 274.139 315.052 275.056 315.838 276.232C316.624 277.408 317.044 278.791 317.044 280.206C317.043 282.103 316.29 283.922 314.948 285.263C313.607 286.605 311.788 287.358 309.891 287.359Z" fill="white"/>
<path d="M323.928 268.743C323.928 269.252 323.777 269.75 323.494 270.174C323.211 270.597 322.809 270.927 322.339 271.122C321.869 271.317 321.351 271.368 320.852 271.268C320.352 271.169 319.894 270.924 319.533 270.564C319.173 270.204 318.928 269.745 318.829 269.246C318.729 268.746 318.78 268.229 318.975 267.758C319.17 267.288 319.5 266.886 319.923 266.603C320.347 266.32 320.844 266.169 321.354 266.169C322.036 266.169 322.691 266.44 323.174 266.923C323.657 267.406 323.928 268.06 323.928 268.743Z" fill="white"/>
<path d="M316.384 187.821H320.123V181.308C318.314 181.11 316.495 181.013 314.676 181.02C309.284 181.02 305.591 184.411 305.591 190.644V196.379H299.642V203.66H305.591V221.979H312.885V203.662H318.594L319.5 196.381H312.884V191.365C312.885 189.261 313.452 187.821 316.384 187.821H316.384Z" fill="white"/>
</g>
<defs>
<linearGradient id="paint0_linear" x1="601.695" y1="120.174" x2="656.027" y2="861.822" gradientUnits="userSpaceOnUse">
<stop stop-color="white"/>
<stop offset="1" stop-color="#94B9FF"/>
</linearGradient>
<linearGradient id="paint1_linear" x1="706.141" y1="595.887" x2="706.211" y2="630.727" gradientUnits="userSpaceOnUse">
<stop stop-color="white"/>
<stop offset="1" stop-color="#94B9FF"/>
</linearGradient>
<linearGradient id="paint2_linear" x1="456.188" y1="523.62" x2="511.893" y2="958.37" gradientUnits="userSpaceOnUse">
<stop stop-color="white"/>
<stop offset="1" stop-color="#94B9FF"/>
</linearGradient>
<clipPath id="clip0">
<rect width="1064.21" height="848.224" fill="white" transform="translate(188 121)"/>
</clipPath>
</defs>
</svg>
