<?xml version="1.0" encoding="UTF-8"?><svg xmlns="http://www.w3.org/2000/svg" xmlns:xlink="http://www.w3.org/1999/xlink" contentScriptType="text/ecmascript" width="375pt" zoomAndPan="magnify" contentStyleType="text/css" viewBox="0 0 375 374.999991" height="374.999991pt" preserveAspectRatio="xMidYMid meet" version="1.2"><defs><clipPath xml:id="clip1" id="clip1"><path d="M 66.925781 33 L 219 33 L 219 327 L 66.925781 327 Z M 66.925781 33 "/></clipPath><clipPath xml:id="clip2" id="clip2"><path d="M 183 271 L 279.175781 271 L 279.175781 327 L 183 327 Z M 183 271 "/></clipPath><clipPath xml:id="clip3" id="clip3"><path d="M 141 176.269531 L 216 176.269531 L 216 326.625 L 141 326.625 Z M 141 176.269531 "/></clipPath><clipPath xml:id="clip4" id="clip4"><path d="M 195.777344 214.585938 C 195.777344 214.585938 180.746094 229.015625 178.445312 253.386719 C 173.597656 306.617188 215.050781 326.019531 215.050781 326.019531 C 215.050781 326.019531 141.835938 328.6875 141.835938 252.660156 C 141.835938 220.164062 156.261719 194.941406 172.261719 176.875 Z M 195.777344 214.585938 "/></clipPath><clipPath xml:id="clip5" id="clip5"><path d="M 183 286 L 216 286 L 216 326.625 L 183 326.625 Z M 183 286 "/></clipPath><clipPath xml:id="clip6" id="clip6"><path d="M 267.660156 271.089844 C 227.539062 300.191406 183.292969 289.519531 183.050781 289.398438 C 193.113281 315.589844 215.171875 326.019531 215.171875 326.019531 C 257.355469 324.320312 278.933594 301.890625 279.296875 301.765625 Z M 267.660156 271.089844 "/></clipPath></defs><g xml:id="surface1" id="surface1"><path style=" stroke:none;fill-rule:nonzero;fill:rgb(100%,100%,100%);fill-opacity:1;" d="M 187.457031 6.332031 C 184.496094 6.332031 181.53125 6.40625 178.570312 6.550781 C 175.609375 6.699219 172.65625 6.914062 169.707031 7.207031 C 166.753906 7.496094 163.8125 7.859375 160.882812 8.292969 C 157.949219 8.730469 155.03125 9.234375 152.121094 9.8125 C 149.214844 10.390625 146.324219 11.042969 143.449219 11.761719 C 140.574219 12.480469 137.71875 13.273438 134.882812 14.132812 C 132.042969 14.992188 129.230469 15.921875 126.441406 16.921875 C 123.648438 17.921875 120.882812 18.988281 118.144531 20.121094 C 115.40625 21.253906 112.699219 22.457031 110.019531 23.722656 C 107.339844 24.992188 104.691406 26.324219 102.078125 27.722656 C 99.460938 29.117188 96.882812 30.578125 94.34375 32.101562 C 91.800781 33.625 89.296875 35.210938 86.832031 36.859375 C 84.367188 38.503906 81.945312 40.210938 79.5625 41.976562 C 77.183594 43.742188 74.84375 45.566406 72.554688 47.445312 C 70.261719 49.328125 68.019531 51.261719 65.824219 53.253906 C 63.625 55.246094 61.480469 57.289062 59.382812 59.382812 C 57.289062 61.480469 55.246094 63.625 53.253906 65.824219 C 51.261719 68.019531 49.328125 70.261719 47.445312 72.554688 C 45.566406 74.84375 43.742188 77.183594 41.976562 79.5625 C 40.210938 81.945312 38.503906 84.367188 36.859375 86.832031 C 35.210938 89.296875 33.625 91.800781 32.101562 94.34375 C 30.578125 96.882812 29.117188 99.460938 27.722656 102.078125 C 26.324219 104.691406 24.992188 107.339844 23.722656 110.019531 C 22.457031 112.699219 21.253906 115.40625 20.121094 118.144531 C 18.988281 120.882812 17.921875 123.648438 16.921875 126.441406 C 15.921875 129.230469 14.992188 132.042969 14.132812 134.882812 C 13.273438 137.71875 12.480469 140.574219 11.761719 143.449219 C 11.042969 146.324219 10.390625 149.214844 9.8125 152.121094 C 9.234375 155.03125 8.730469 157.949219 8.292969 160.882812 C 7.859375 163.8125 7.496094 166.753906 7.207031 169.707031 C 6.914062 172.65625 6.699219 175.609375 6.550781 178.570312 C 6.40625 181.53125 6.332031 184.496094 6.332031 187.457031 C 6.332031 190.421875 6.40625 193.386719 6.550781 196.347656 C 6.699219 199.308594 6.914062 202.261719 7.207031 205.210938 C 7.496094 208.160156 7.859375 211.101562 8.292969 214.035156 C 8.730469 216.96875 9.234375 219.886719 9.8125 222.792969 C 10.390625 225.703125 11.042969 228.59375 11.761719 231.46875 C 12.480469 234.34375 13.273438 237.199219 14.132812 240.035156 C 14.992188 242.875 15.921875 245.6875 16.921875 248.476562 C 17.921875 251.269531 18.988281 254.035156 20.121094 256.773438 C 21.253906 259.511719 22.457031 262.21875 23.722656 264.898438 C 24.992188 267.578125 26.324219 270.226562 27.722656 272.839844 C 29.117188 275.453125 30.578125 278.03125 32.101562 280.574219 C 33.625 283.117188 35.210938 285.621094 36.859375 288.085938 C 38.503906 290.550781 40.210938 292.972656 41.976562 295.355469 C 43.742188 297.734375 45.566406 300.070312 47.445312 302.363281 C 49.328125 304.65625 51.261719 306.898438 53.253906 309.09375 C 55.246094 311.292969 57.289062 313.4375 59.382812 315.535156 C 61.480469 317.628906 63.625 319.671875 65.824219 321.664062 C 68.019531 323.652344 70.261719 325.589844 72.554688 327.46875 C 74.84375 329.351562 77.183594 331.175781 79.5625 332.941406 C 81.945312 334.707031 84.367188 336.410156 86.832031 338.058594 C 89.296875 339.707031 91.800781 341.289062 94.34375 342.816406 C 96.882812 344.339844 99.460938 345.800781 102.078125 347.195312 C 104.691406 348.59375 107.339844 349.925781 110.019531 351.195312 C 112.699219 352.460938 115.40625 353.660156 118.144531 354.796875 C 120.882812 355.929688 123.648438 356.996094 126.441406 357.996094 C 129.230469 358.996094 132.042969 359.925781 134.882812 360.785156 C 137.71875 361.644531 140.574219 362.433594 143.449219 363.15625 C 146.324219 363.875 149.214844 364.523438 152.121094 365.101562 C 155.03125 365.683594 157.949219 366.1875 160.882812 366.625 C 163.8125 367.058594 166.753906 367.421875 169.707031 367.710938 C 172.65625 368.003906 175.609375 368.21875 178.570312 368.367188 C 181.53125 368.511719 184.496094 368.582031 187.457031 368.582031 C 190.421875 368.582031 193.386719 368.511719 196.347656 368.367188 C 199.308594 368.21875 202.261719 368.003906 205.210938 367.710938 C 208.160156 367.421875 211.101562 367.058594 214.035156 366.625 C 216.96875 366.1875 219.886719 365.683594 222.792969 365.101562 C 225.703125 364.523438 228.59375 363.875 231.46875 363.15625 C 234.34375 362.433594 237.199219 361.644531 240.035156 360.785156 C 242.875 359.925781 245.6875 358.996094 248.476562 357.996094 C 251.269531 356.996094 254.035156 355.929688 256.773438 354.796875 C 259.511719 353.660156 262.21875 352.460938 264.898438 351.195312 C 267.578125 349.925781 270.226562 348.59375 272.839844 347.195312 C 275.453125 345.800781 278.03125 344.339844 280.574219 342.816406 C 283.117188 341.289062 285.621094 339.707031 288.085938 338.058594 C 290.550781 336.410156 292.972656 334.707031 295.355469 332.941406 C 297.734375 331.175781 300.070312 329.351562 302.363281 327.46875 C 304.65625 325.589844 306.898438 323.652344 309.09375 321.664062 C 311.292969 319.671875 313.4375 317.628906 315.535156 315.535156 C 317.628906 313.4375 319.671875 311.292969 321.664062 309.09375 C 323.652344 306.898438 325.589844 304.65625 327.46875 302.363281 C 329.351562 300.070312 331.175781 297.734375 332.941406 295.355469 C 334.707031 292.972656 336.410156 290.550781 338.058594 288.085938 C 339.707031 285.621094 341.289062 283.117188 342.816406 280.574219 C 344.339844 278.03125 345.800781 275.453125 347.195312 272.839844 C 348.59375 270.226562 349.925781 267.578125 351.195312 264.898438 C 352.460938 262.21875 353.660156 259.511719 354.796875 256.773438 C 355.929688 254.035156 356.996094 251.269531 357.996094 248.476562 C 358.996094 245.6875 359.925781 242.875 360.785156 240.035156 C 361.644531 237.199219 362.433594 234.34375 363.15625 231.46875 C 363.875 228.59375 364.523438 225.703125 365.101562 222.792969 C 365.683594 219.886719 366.1875 216.96875 366.625 214.035156 C 367.058594 211.101562 367.421875 208.160156 367.710938 205.210938 C 368.003906 202.261719 368.21875 199.308594 368.367188 196.347656 C 368.511719 193.386719 368.582031 190.421875 368.582031 187.457031 C 368.582031 184.496094 368.511719 181.53125 368.367188 178.570312 C 368.21875 175.609375 368.003906 172.65625 367.710938 169.707031 C 367.421875 166.753906 367.058594 163.8125 366.625 160.882812 C 366.1875 157.949219 365.683594 155.03125 365.101562 152.121094 C 364.523438 149.214844 363.875 146.324219 363.15625 143.449219 C 362.433594 140.574219 361.644531 137.71875 360.785156 134.882812 C 359.925781 132.042969 358.996094 129.230469 357.996094 126.441406 C 356.996094 123.648438 355.929688 120.882812 354.796875 118.144531 C 353.660156 115.40625 352.460938 112.699219 351.195312 110.019531 C 349.925781 107.339844 348.59375 104.691406 347.195312 102.078125 C 345.800781 99.460938 344.339844 96.882812 342.816406 94.34375 C 341.289062 91.800781 339.707031 89.296875 338.058594 86.832031 C 336.410156 84.367188 334.707031 81.945312 332.941406 79.5625 C 331.175781 77.183594 329.351562 74.84375 327.46875 72.554688 C 325.589844 70.261719 323.652344 68.019531 321.664062 65.824219 C 319.671875 63.625 317.628906 61.480469 315.535156 59.382812 C 313.4375 57.289062 311.292969 55.246094 309.09375 53.253906 C 306.898438 51.261719 304.65625 49.328125 302.363281 47.445312 C 300.070312 45.566406 297.734375 43.742188 295.355469 41.976562 C 292.972656 40.210938 290.550781 38.503906 288.085938 36.859375 C 285.621094 35.210938 283.117188 33.625 280.574219 32.101562 C 278.03125 30.578125 275.453125 29.117188 272.839844 27.722656 C 270.226562 26.324219 267.578125 24.992188 264.898438 23.722656 C 262.21875 22.457031 259.511719 21.253906 256.773438 20.121094 C 254.035156 18.988281 251.269531 17.921875 248.476562 16.921875 C 245.6875 15.921875 242.875 14.992188 240.035156 14.132812 C 237.199219 13.273438 234.34375 12.480469 231.46875 11.761719 C 228.59375 11.042969 225.703125 10.390625 222.792969 9.8125 C 219.886719 9.234375 216.96875 8.730469 214.035156 8.292969 C 211.101562 7.859375 208.160156 7.496094 205.210938 7.207031 C 202.261719 6.914062 199.308594 6.699219 196.347656 6.550781 C 193.386719 6.40625 190.421875 6.332031 187.457031 6.332031 Z M 187.457031 6.332031 "/><g clip-rule="nonzero" clip-path="url(#clip1)"><path style=" stroke:none;fill-rule:nonzero;fill:rgb(24.308777%,20.388794%,54.899597%);fill-opacity:1;" d="M 215.050781 326.019531 C 215.050781 326.019531 85.714844 334.628906 68.742188 216.160156 C 62.441406 172.027344 73.351562 127.890625 99.046875 92.363281 C 131.292969 47.738281 178.445312 33.191406 178.445312 33.191406 L 218.808594 140.863281 C 218.808594 140.863281 192.382812 154.324219 172.261719 176.996094 C 156.261719 195.0625 141.835938 220.285156 141.835938 252.78125 C 141.835938 328.6875 215.050781 326.019531 215.050781 326.019531 Z M 215.050781 326.019531 "/></g><path style=" stroke:none;fill-rule:nonzero;fill:rgb(0%,18.818665%,87.838745%);fill-opacity:1;" d="M 195.777344 214.585938 C 195.777344 214.585938 180.746094 229.015625 178.445312 253.386719 C 173.597656 306.617188 215.050781 326.019531 215.050781 326.019531 C 215.050781 326.019531 141.835938 328.6875 141.835938 252.660156 C 141.835938 220.164062 156.261719 194.941406 172.261719 176.875 Z M 195.777344 214.585938 "/><g clip-rule="nonzero" clip-path="url(#clip2)"><path style=" stroke:none;fill-rule:nonzero;fill:rgb(54.899597%,32.159424%,100%);fill-opacity:1;" d="M 267.660156 271.089844 C 227.539062 300.191406 183.292969 289.519531 183.050781 289.398438 C 193.113281 315.589844 215.171875 326.019531 215.171875 326.019531 C 257.355469 324.320312 278.933594 301.890625 279.296875 301.765625 Z M 267.660156 271.089844 "/></g><g clip-rule="nonzero" clip-path="url(#clip3)"><g clip-rule="nonzero" clip-path="url(#clip4)"><path style=" stroke:none;fill-rule:nonzero;fill:rgb(0%,0%,0%);fill-opacity:1;" d="M 188.140625 184.394531 C 188.140625 184.394531 149.472656 209.855469 149.59375 262.480469 C 149.714844 308.195312 182.929688 329.535156 215.050781 326.019531 L 215.050781 334.75 L 130.320312 334.75 L 130.320312 167.539062 L 188.140625 152.867188 Z M 188.140625 184.394531 "/></g></g><g clip-rule="nonzero" clip-path="url(#clip5)"><g clip-rule="nonzero" clip-path="url(#clip6)"><path style=" stroke:none;fill-rule:nonzero;fill:rgb(0%,0%,0%);fill-opacity:1;" d="M 189.839844 286.972656 C 189.839844 286.972656 188.871094 307.34375 215.050781 325.898438 L 215.050781 341.78125 L 178.445312 341.78125 L 178.445312 286.972656 Z M 189.839844 286.972656 "/></g></g></g></svg>