<?xml version="1.0" encoding="UTF-8"?><svg xmlns="http://www.w3.org/2000/svg" xmlns:xlink="http://www.w3.org/1999/xlink" contentScriptType="text/ecmascript" width="112.5pt" zoomAndPan="magnify" contentStyleType="text/css" viewBox="0 0 112.5 44.999999" height="44.999999pt" preserveAspectRatio="xMidYMid meet" version="1.2"><defs><g/><clipPath xml:id="clip1" id="clip1"><path d="M 0 1.632812 L 23 1.632812 L 23 44.898438 L 0 44.898438 Z M 0 1.632812 "/></clipPath><clipPath xml:id="clip2" id="clip2"><path d="M 10 22 L 22 22 L 22 44.898438 L 10 44.898438 Z M 10 22 "/></clipPath><clipPath xml:id="clip3" id="clip3"><path d="M 16 36 L 30.75 36 L 30.75 44.898438 L 16 44.898438 Z M 16 36 "/></clipPath><clipPath xml:id="clip4" id="clip4"><path d="M 10.710938 22.503906 L 21.601562 22.503906 L 21.601562 44.347656 L 10.710938 44.347656 Z M 10.710938 22.503906 "/></clipPath><clipPath xml:id="clip5" id="clip5"><path d="M 18.667969 28.070312 C 18.667969 28.070312 16.488281 30.167969 16.15625 33.707031 C 15.453125 41.441406 21.460938 44.257812 21.460938 44.257812 C 21.460938 44.257812 10.851562 44.644531 10.851562 33.601562 C 10.851562 28.882812 12.941406 25.21875 15.261719 22.59375 Z M 18.667969 28.070312 "/></clipPath><clipPath xml:id="clip6" id="clip6"><path d="M 16.683594 38 L 22 38 L 22 44.347656 L 16.683594 44.347656 Z M 16.683594 38 "/></clipPath><clipPath xml:id="clip7" id="clip7"><path d="M 29.082031 36.28125 C 23.269531 40.507812 16.859375 38.957031 16.824219 38.9375 C 18.28125 42.742188 21.476562 44.257812 21.476562 44.257812 C 27.589844 44.011719 30.714844 40.753906 30.765625 40.734375 Z M 29.082031 36.28125 "/></clipPath></defs><g xml:id="surface1" id="surface1"><g clip-rule="nonzero" clip-path="url(#clip1)"><path style=" stroke:none;fill-rule:nonzero;fill:rgb(24.308777%,20.388794%,54.899597%);fill-opacity:1;" d="M 21.460938 44.257812 C 21.460938 44.257812 2.722656 45.507812 0.261719 28.300781 C -0.648438 21.890625 0.929688 15.476562 4.652344 10.316406 C 9.324219 3.835938 16.15625 1.71875 16.15625 1.71875 L 22.003906 17.363281 C 22.003906 17.363281 18.175781 19.316406 15.261719 22.609375 C 12.941406 25.234375 10.851562 28.898438 10.851562 33.621094 C 10.851562 44.644531 21.460938 44.257812 21.460938 44.257812 Z M 21.460938 44.257812 "/></g><g clip-rule="nonzero" clip-path="url(#clip2)"><path style=" stroke:none;fill-rule:nonzero;fill:rgb(0%,18.818665%,87.838745%);fill-opacity:1;" d="M 18.667969 28.070312 C 18.667969 28.070312 16.488281 30.167969 16.15625 33.707031 C 15.453125 41.441406 21.460938 44.257812 21.460938 44.257812 C 21.460938 44.257812 10.851562 44.644531 10.851562 33.601562 C 10.851562 28.882812 12.941406 25.21875 15.261719 22.59375 Z M 18.667969 28.070312 "/></g><g clip-rule="nonzero" clip-path="url(#clip3)"><path style=" stroke:none;fill-rule:nonzero;fill:rgb(54.899597%,32.159424%,100%);fill-opacity:1;" d="M 29.082031 36.28125 C 23.269531 40.507812 16.859375 38.957031 16.824219 38.9375 C 18.28125 42.742188 21.476562 44.257812 21.476562 44.257812 C 27.589844 44.011719 30.714844 40.753906 30.765625 40.734375 Z M 29.082031 36.28125 "/></g><g clip-rule="nonzero" clip-path="url(#clip4)"><g clip-rule="nonzero" clip-path="url(#clip5)"><path style=" stroke:none;fill-rule:nonzero;fill:rgb(0%,0%,0%);fill-opacity:1;" d="M 17.5625 23.683594 C 17.5625 23.683594 11.960938 27.382812 11.976562 35.027344 C 11.996094 41.667969 16.804688 44.769531 21.460938 44.257812 L 21.460938 45.527344 L 9.183594 45.527344 L 9.183594 21.238281 L 17.5625 19.105469 Z M 17.5625 23.683594 "/></g></g><g clip-rule="nonzero" clip-path="url(#clip6)"><g clip-rule="nonzero" clip-path="url(#clip7)"><path style=" stroke:none;fill-rule:nonzero;fill:rgb(0%,0%,0%);fill-opacity:1;" d="M 17.808594 38.585938 C 17.808594 38.585938 17.667969 41.546875 21.460938 44.242188 L 21.460938 46.546875 L 16.15625 46.546875 L 16.15625 38.585938 Z M 17.808594 38.585938 "/></g></g><g style="fill:rgb(0%,0%,0%);fill-opacity:1;"><g transform="translate(25.394058, 27.474555)"><path style="stroke:none;" d="M 5.09375 0.28125 C 3.695312 0.28125 2.65625 -0.015625 1.96875 -0.609375 C 1.289062 -1.203125 0.953125 -2.117188 0.953125 -3.359375 L 0.953125 -8.984375 L 3.234375 -8.984375 L 3.234375 -3.453125 C 3.234375 -2.753906 3.367188 -2.238281 3.640625 -1.90625 C 3.921875 -1.582031 4.367188 -1.421875 4.984375 -1.421875 C 5.546875 -1.421875 5.976562 -1.585938 6.28125 -1.921875 C 6.59375 -2.265625 6.75 -2.773438 6.75 -3.453125 L 6.75 -8.984375 L 8.828125 -8.984375 L 8.828125 -3.359375 C 8.828125 -2.140625 8.488281 -1.226562 7.8125 -0.625 C 7.144531 -0.0195312 6.238281 0.28125 5.09375 0.28125 Z M 5.09375 0.28125 "/></g></g><g style="fill:rgb(0%,0%,0%);fill-opacity:1;"><g transform="translate(35.160983, 27.474555)"><path style="stroke:none;" d="M 2.90625 0.203125 C 2.476562 0.203125 2.101562 0.160156 1.78125 0.078125 C 1.457031 -0.00390625 1.097656 -0.128906 0.703125 -0.296875 L 0.703125 -2.0625 C 1.429688 -1.507812 2.191406 -1.234375 2.984375 -1.234375 C 3.296875 -1.234375 3.519531 -1.285156 3.65625 -1.390625 C 3.789062 -1.492188 3.859375 -1.632812 3.859375 -1.8125 C 3.859375 -2.019531 3.742188 -2.171875 3.515625 -2.265625 C 3.296875 -2.367188 2.941406 -2.476562 2.453125 -2.59375 C 1.929688 -2.707031 1.5 -2.925781 1.15625 -3.25 C 0.820312 -3.570312 0.65625 -4.039062 0.65625 -4.65625 C 0.65625 -5.1875 0.789062 -5.625 1.0625 -5.96875 C 1.332031 -6.3125 1.671875 -6.5625 2.078125 -6.71875 C 2.484375 -6.875 2.910156 -6.953125 3.359375 -6.953125 C 3.890625 -6.953125 4.320312 -6.90625 4.65625 -6.8125 C 5 -6.71875 5.332031 -6.570312 5.65625 -6.375 L 5.65625 -4.796875 C 5.195312 -5.046875 4.84375 -5.222656 4.59375 -5.328125 C 4.34375 -5.441406 4.050781 -5.5 3.71875 -5.5 C 3.382812 -5.5 3.132812 -5.445312 2.96875 -5.34375 C 2.8125 -5.238281 2.734375 -5.09375 2.734375 -4.90625 C 2.734375 -4.675781 2.820312 -4.507812 3 -4.40625 C 3.175781 -4.300781 3.460938 -4.195312 3.859375 -4.09375 C 4.304688 -3.976562 4.660156 -3.863281 4.921875 -3.75 C 5.179688 -3.632812 5.414062 -3.441406 5.625 -3.171875 C 5.832031 -2.898438 5.9375 -2.515625 5.9375 -2.015625 C 5.914062 -1.242188 5.625 -0.679688 5.0625 -0.328125 C 4.5 0.0234375 3.78125 0.203125 2.90625 0.203125 Z M 2.90625 0.203125 "/></g></g><g style="fill:rgb(0%,0%,0%);fill-opacity:1;"><g transform="translate(41.645365, 27.474555)"><path style="stroke:none;" d="M 3.90625 -7.046875 C 6.03125 -7.046875 7.082031 -5.65625 7.0625 -2.875 L 2.5625 -2.875 C 2.726562 -1.9375 3.359375 -1.46875 4.453125 -1.46875 C 4.785156 -1.46875 5.109375 -1.515625 5.421875 -1.609375 C 5.742188 -1.703125 6.085938 -1.828125 6.453125 -1.984375 L 6.453125 -0.25 C 5.710938 0.0507812 4.882812 0.203125 3.96875 0.203125 C 3.28125 0.203125 2.675781 0.0625 2.15625 -0.21875 C 1.632812 -0.5 1.226562 -0.90625 0.9375 -1.4375 C 0.65625 -1.96875 0.515625 -2.59375 0.515625 -3.3125 C 0.515625 -4.5 0.804688 -5.414062 1.390625 -6.0625 C 1.984375 -6.71875 2.820312 -7.046875 3.90625 -7.046875 Z M 3.828125 -5.515625 C 3.109375 -5.515625 2.679688 -5.0625 2.546875 -4.15625 L 5.0625 -4.15625 C 5 -4.644531 4.867188 -4.992188 4.671875 -5.203125 C 4.484375 -5.410156 4.203125 -5.515625 3.828125 -5.515625 Z M 3.828125 -5.515625 "/></g></g><g style="fill:rgb(0%,0%,0%);fill-opacity:1;"><g transform="translate(49.205984, 27.474555)"><path style="stroke:none;" d="M 0.890625 -6.09375 C 1.023438 -6.21875 1.257812 -6.347656 1.59375 -6.484375 C 1.925781 -6.628906 2.300781 -6.753906 2.71875 -6.859375 C 3.144531 -6.960938 3.550781 -7.015625 3.9375 -7.015625 C 4.675781 -7.015625 5.191406 -6.90625 5.484375 -6.6875 L 5.484375 -5.21875 C 5.117188 -5.289062 4.601562 -5.328125 3.9375 -5.328125 C 3.507812 -5.328125 3.160156 -5.304688 2.890625 -5.265625 L 2.890625 0 L 0.890625 0 Z M 0.890625 -6.09375 "/></g></g><g style="fill:rgb(0%,0%,0%);fill-opacity:1;"><g transform="translate(54.963895, 27.474555)"><path style="stroke:none;" d=""/></g></g><g style="fill:rgb(0%,0%,0%);fill-opacity:1;"><g transform="translate(58.676942, 27.474555)"><path style="stroke:none;" d="M 6.265625 0 L 4.484375 -3.09375 L 3.140625 -3.09375 L 3.140625 0 L 0.953125 0 L 0.953125 -8.984375 L 5.328125 -8.984375 C 6.359375 -8.984375 7.15625 -8.742188 7.71875 -8.265625 C 8.289062 -7.796875 8.578125 -7.085938 8.578125 -6.140625 C 8.578125 -5.554688 8.414062 -5.015625 8.09375 -4.515625 C 7.769531 -4.015625 7.320312 -3.679688 6.75 -3.515625 L 9.03125 0 Z M 4.96875 -4.703125 C 5.800781 -4.703125 6.21875 -5.144531 6.21875 -6.03125 C 6.21875 -6.445312 6.117188 -6.757812 5.921875 -6.96875 C 5.722656 -7.1875 5.4375 -7.296875 5.0625 -7.296875 L 3.140625 -7.296875 L 3.140625 -4.703125 Z M 4.96875 -4.703125 "/></g></g><g style="fill:rgb(0%,0%,0%);fill-opacity:1;"><g transform="translate(68.215168, 27.474555)"><path style="stroke:none;" d="M 3.90625 -7.046875 C 6.03125 -7.046875 7.082031 -5.65625 7.0625 -2.875 L 2.5625 -2.875 C 2.726562 -1.9375 3.359375 -1.46875 4.453125 -1.46875 C 4.785156 -1.46875 5.109375 -1.515625 5.421875 -1.609375 C 5.742188 -1.703125 6.085938 -1.828125 6.453125 -1.984375 L 6.453125 -0.25 C 5.710938 0.0507812 4.882812 0.203125 3.96875 0.203125 C 3.28125 0.203125 2.675781 0.0625 2.15625 -0.21875 C 1.632812 -0.5 1.226562 -0.90625 0.9375 -1.4375 C 0.65625 -1.96875 0.515625 -2.59375 0.515625 -3.3125 C 0.515625 -4.5 0.804688 -5.414062 1.390625 -6.0625 C 1.984375 -6.71875 2.820312 -7.046875 3.90625 -7.046875 Z M 3.828125 -5.515625 C 3.109375 -5.515625 2.679688 -5.0625 2.546875 -4.15625 L 5.0625 -4.15625 C 5 -4.644531 4.867188 -4.992188 4.671875 -5.203125 C 4.484375 -5.410156 4.203125 -5.515625 3.828125 -5.515625 Z M 3.828125 -5.515625 "/></g></g><g style="fill:rgb(0%,0%,0%);fill-opacity:1;"><g transform="translate(75.775787, 27.474555)"><path style="stroke:none;" d="M 4.140625 -7 C 6.179688 -7 7.203125 -6.367188 7.203125 -5.109375 L 7.203125 2.625 L 5.234375 2.625 L 5.234375 -0.203125 C 4.828125 0.0664062 4.289062 0.203125 3.625 0.203125 C 2.625 0.203125 1.851562 -0.0976562 1.3125 -0.703125 C 0.78125 -1.304688 0.515625 -2.160156 0.515625 -3.265625 C 0.515625 -4.609375 0.832031 -5.566406 1.46875 -6.140625 C 2.101562 -6.710938 2.992188 -7 4.140625 -7 Z M 2.5 -3.390625 C 2.5 -2.710938 2.644531 -2.210938 2.9375 -1.890625 C 3.226562 -1.578125 3.625 -1.421875 4.125 -1.421875 C 4.550781 -1.421875 4.921875 -1.515625 5.234375 -1.703125 L 5.234375 -4.71875 C 5.234375 -4.914062 5.125 -5.066406 4.90625 -5.171875 C 4.695312 -5.273438 4.4375 -5.328125 4.125 -5.328125 C 3.550781 -5.328125 3.132812 -5.160156 2.875 -4.828125 C 2.625 -4.492188 2.5 -4.015625 2.5 -3.390625 Z M 2.5 -3.390625 "/></g></g><g style="fill:rgb(0%,0%,0%);fill-opacity:1;"><g transform="translate(83.861083, 27.474555)"><path style="stroke:none;" d="M 4.09375 0.203125 C 3.09375 0.203125 2.304688 -0.03125 1.734375 -0.5 C 1.171875 -0.96875 0.890625 -1.664062 0.890625 -2.59375 L 0.890625 -6.8125 L 2.890625 -6.8125 L 2.890625 -2.765625 C 2.890625 -2.328125 2.984375 -2.003906 3.171875 -1.796875 C 3.367188 -1.585938 3.679688 -1.484375 4.109375 -1.484375 C 4.523438 -1.484375 4.828125 -1.585938 5.015625 -1.796875 C 5.210938 -2.003906 5.3125 -2.328125 5.3125 -2.765625 L 5.3125 -6.8125 L 7.203125 -6.8125 L 7.203125 -2.59375 C 7.203125 -1.65625 6.929688 -0.953125 6.390625 -0.484375 C 5.847656 -0.0234375 5.082031 0.203125 4.09375 0.203125 Z M 4.09375 0.203125 "/></g></g><g style="fill:rgb(0%,0%,0%);fill-opacity:1;"><g transform="translate(91.946379, 27.474555)"><path style="stroke:none;" d="M 3.90625 -7.046875 C 6.03125 -7.046875 7.082031 -5.65625 7.0625 -2.875 L 2.5625 -2.875 C 2.726562 -1.9375 3.359375 -1.46875 4.453125 -1.46875 C 4.785156 -1.46875 5.109375 -1.515625 5.421875 -1.609375 C 5.742188 -1.703125 6.085938 -1.828125 6.453125 -1.984375 L 6.453125 -0.25 C 5.710938 0.0507812 4.882812 0.203125 3.96875 0.203125 C 3.28125 0.203125 2.675781 0.0625 2.15625 -0.21875 C 1.632812 -0.5 1.226562 -0.90625 0.9375 -1.4375 C 0.65625 -1.96875 0.515625 -2.59375 0.515625 -3.3125 C 0.515625 -4.5 0.804688 -5.414062 1.390625 -6.0625 C 1.984375 -6.71875 2.820312 -7.046875 3.90625 -7.046875 Z M 3.828125 -5.515625 C 3.109375 -5.515625 2.679688 -5.0625 2.546875 -4.15625 L 5.0625 -4.15625 C 5 -4.644531 4.867188 -4.992188 4.671875 -5.203125 C 4.484375 -5.410156 4.203125 -5.515625 3.828125 -5.515625 Z M 3.828125 -5.515625 "/></g></g><g style="fill:rgb(0%,0%,0%);fill-opacity:1;"><g transform="translate(99.506998, 27.474555)"><path style="stroke:none;" d="M 2.90625 0.203125 C 2.476562 0.203125 2.101562 0.160156 1.78125 0.078125 C 1.457031 -0.00390625 1.097656 -0.128906 0.703125 -0.296875 L 0.703125 -2.0625 C 1.429688 -1.507812 2.191406 -1.234375 2.984375 -1.234375 C 3.296875 -1.234375 3.519531 -1.285156 3.65625 -1.390625 C 3.789062 -1.492188 3.859375 -1.632812 3.859375 -1.8125 C 3.859375 -2.019531 3.742188 -2.171875 3.515625 -2.265625 C 3.296875 -2.367188 2.941406 -2.476562 2.453125 -2.59375 C 1.929688 -2.707031 1.5 -2.925781 1.15625 -3.25 C 0.820312 -3.570312 0.65625 -4.039062 0.65625 -4.65625 C 0.65625 -5.1875 0.789062 -5.625 1.0625 -5.96875 C 1.332031 -6.3125 1.671875 -6.5625 2.078125 -6.71875 C 2.484375 -6.875 2.910156 -6.953125 3.359375 -6.953125 C 3.890625 -6.953125 4.320312 -6.90625 4.65625 -6.8125 C 5 -6.71875 5.332031 -6.570312 5.65625 -6.375 L 5.65625 -4.796875 C 5.195312 -5.046875 4.84375 -5.222656 4.59375 -5.328125 C 4.34375 -5.441406 4.050781 -5.5 3.71875 -5.5 C 3.382812 -5.5 3.132812 -5.445312 2.96875 -5.34375 C 2.8125 -5.238281 2.734375 -5.09375 2.734375 -4.90625 C 2.734375 -4.675781 2.820312 -4.507812 3 -4.40625 C 3.175781 -4.300781 3.460938 -4.195312 3.859375 -4.09375 C 4.304688 -3.976562 4.660156 -3.863281 4.921875 -3.75 C 5.179688 -3.632812 5.414062 -3.441406 5.625 -3.171875 C 5.832031 -2.898438 5.9375 -2.515625 5.9375 -2.015625 C 5.914062 -1.242188 5.625 -0.679688 5.0625 -0.328125 C 4.5 0.0234375 3.78125 0.203125 2.90625 0.203125 Z M 2.90625 0.203125 "/></g></g><g style="fill:rgb(0%,0%,0%);fill-opacity:1;"><g transform="translate(105.99138, 27.474555)"><path style="stroke:none;" d="M 3.671875 0.265625 C 2.890625 0.265625 2.300781 0.0820312 1.90625 -0.28125 C 1.519531 -0.644531 1.328125 -1.175781 1.328125 -1.875 L 1.328125 -5.28125 L 0.34375 -5.28125 L 0.34375 -6.8125 L 1.328125 -6.8125 L 1.328125 -8.6875 L 3.4375 -8.6875 L 3.4375 -6.8125 L 4.921875 -6.8125 L 4.921875 -5.28125 L 3.4375 -5.28125 L 3.4375 -2.125 C 3.4375 -1.894531 3.484375 -1.722656 3.578125 -1.609375 C 3.679688 -1.492188 3.847656 -1.4375 4.078125 -1.4375 C 4.222656 -1.4375 4.367188 -1.460938 4.515625 -1.515625 C 4.671875 -1.566406 4.804688 -1.632812 4.921875 -1.71875 L 4.921875 -0.015625 C 4.585938 0.171875 4.171875 0.265625 3.671875 0.265625 Z M 3.671875 0.265625 "/></g></g><g style="fill:rgb(24.308777%,20.388794%,54.899597%);fill-opacity:1;"><g transform="translate(27.765858, 33.872949)"><path style="stroke:none;" d="M 2.359375 0.0625 C 1.796875 0.0625 1.359375 -0.0976562 1.046875 -0.421875 C 0.734375 -0.753906 0.578125 -1.226562 0.578125 -1.84375 L 0.578125 -4.53125 L 1.0625 -4.53125 L 1.0625 -1.828125 C 1.0625 -0.867188 1.492188 -0.390625 2.359375 -0.390625 C 3.222656 -0.390625 3.65625 -0.867188 3.65625 -1.828125 L 3.65625 -4.53125 L 4.125 -4.53125 L 4.125 -1.84375 C 4.125 -1.226562 3.96875 -0.753906 3.65625 -0.421875 C 3.34375 -0.0976562 2.910156 0.0625 2.359375 0.0625 Z M 2.359375 0.0625 "/></g></g><g style="fill:rgb(24.308777%,20.388794%,54.899597%);fill-opacity:1;"><g transform="translate(32.471482, 33.872949)"><path style="stroke:none;" d="M 1.5 0.109375 C 1.269531 0.109375 1.070312 0.0820312 0.90625 0.03125 C 0.75 -0.0078125 0.570312 -0.0820312 0.375 -0.1875 L 0.375 -0.703125 C 0.601562 -0.566406 0.789062 -0.472656 0.9375 -0.421875 C 1.082031 -0.367188 1.257812 -0.34375 1.46875 -0.34375 C 1.695312 -0.34375 1.878906 -0.390625 2.015625 -0.484375 C 2.160156 -0.585938 2.234375 -0.722656 2.234375 -0.890625 C 2.234375 -1.023438 2.191406 -1.128906 2.109375 -1.203125 C 2.023438 -1.273438 1.890625 -1.34375 1.703125 -1.40625 L 1.515625 -1.484375 C 1.265625 -1.554688 1.066406 -1.625 0.921875 -1.6875 C 0.773438 -1.75 0.648438 -1.84375 0.546875 -1.96875 C 0.441406 -2.09375 0.390625 -2.265625 0.390625 -2.484375 C 0.390625 -2.703125 0.445312 -2.878906 0.5625 -3.015625 C 0.675781 -3.160156 0.820312 -3.269531 1 -3.34375 C 1.175781 -3.414062 1.363281 -3.453125 1.5625 -3.453125 C 1.75 -3.453125 1.90625 -3.429688 2.03125 -3.390625 C 2.15625 -3.347656 2.328125 -3.28125 2.546875 -3.1875 L 2.546875 -2.703125 C 2.316406 -2.816406 2.140625 -2.894531 2.015625 -2.9375 C 1.898438 -2.976562 1.757812 -3 1.59375 -3 C 1.394531 -3 1.222656 -2.957031 1.078125 -2.875 C 0.941406 -2.800781 0.875 -2.691406 0.875 -2.546875 C 0.875 -2.429688 0.910156 -2.332031 0.984375 -2.25 C 1.054688 -2.175781 1.144531 -2.117188 1.25 -2.078125 C 1.351562 -2.035156 1.492188 -1.988281 1.671875 -1.9375 C 1.898438 -1.863281 2.082031 -1.796875 2.21875 -1.734375 C 2.351562 -1.679688 2.46875 -1.585938 2.5625 -1.453125 C 2.664062 -1.328125 2.71875 -1.15625 2.71875 -0.9375 C 2.71875 -0.707031 2.660156 -0.515625 2.546875 -0.359375 C 2.429688 -0.203125 2.28125 -0.0820312 2.09375 0 C 1.90625 0.0703125 1.707031 0.109375 1.5 0.109375 Z M 1.5 0.109375 "/></g></g><g style="fill:rgb(24.308777%,20.388794%,54.899597%);fill-opacity:1;"><g transform="translate(35.572301, 33.872949)"><path style="stroke:none;" d="M 1.859375 -3.453125 C 2.378906 -3.453125 2.757812 -3.285156 3 -2.953125 C 3.238281 -2.617188 3.351562 -2.171875 3.34375 -1.609375 L 0.875 -1.609375 C 0.875 -1.203125 0.96875 -0.890625 1.15625 -0.671875 C 1.34375 -0.453125 1.613281 -0.34375 1.96875 -0.34375 C 2.425781 -0.34375 2.816406 -0.441406 3.140625 -0.640625 L 3.140625 -0.140625 C 2.804688 0.0234375 2.40625 0.109375 1.9375 0.109375 C 1.445312 0.109375 1.0625 -0.0390625 0.78125 -0.34375 C 0.507812 -0.65625 0.375 -1.109375 0.375 -1.703125 C 0.375 -2.273438 0.503906 -2.707031 0.765625 -3 C 1.023438 -3.300781 1.390625 -3.453125 1.859375 -3.453125 Z M 1.859375 -3 C 1.554688 -3 1.328125 -2.929688 1.171875 -2.796875 C 1.023438 -2.660156 0.929688 -2.414062 0.890625 -2.0625 L 2.828125 -2.0625 C 2.804688 -2.375 2.71875 -2.609375 2.5625 -2.765625 C 2.40625 -2.921875 2.171875 -3 1.859375 -3 Z M 1.859375 -3 "/></g></g><g style="fill:rgb(24.308777%,20.388794%,54.899597%);fill-opacity:1;"><g transform="translate(39.291916, 33.872949)"><path style="stroke:none;" d="M 0.546875 -3.125 C 0.710938 -3.195312 0.9375 -3.269531 1.21875 -3.34375 C 1.507812 -3.414062 1.804688 -3.453125 2.109375 -3.453125 C 2.148438 -3.453125 2.222656 -3.4375 2.328125 -3.40625 L 2.328125 -2.984375 C 2.210938 -2.992188 2.101562 -3 2 -3 C 1.851562 -3 1.710938 -2.988281 1.578125 -2.96875 C 1.453125 -2.945312 1.269531 -2.914062 1.03125 -2.875 L 1.03125 0 L 0.546875 0 Z M 0.546875 -3.125 "/></g></g><g style="fill:rgb(24.308777%,20.388794%,54.899597%);fill-opacity:1;"><g transform="translate(41.855529, 33.872949)"><path style="stroke:none;" d=""/></g></g><g style="fill:rgb(24.308777%,20.388794%,54.899597%);fill-opacity:1;"><g transform="translate(43.827539, 33.872949)"><path style="stroke:none;" d="M 3.40625 0 L 2.21875 -1.828125 L 1.0625 -1.828125 L 1.0625 0 L 0.578125 0 L 0.578125 -4.53125 L 2.4375 -4.53125 C 2.875 -4.53125 3.207031 -4.421875 3.4375 -4.203125 C 3.664062 -3.984375 3.78125 -3.65625 3.78125 -3.21875 C 3.78125 -2.863281 3.6875 -2.566406 3.5 -2.328125 C 3.3125 -2.085938 3.0625 -1.9375 2.75 -1.875 L 3.984375 0 Z M 1.0625 -2.296875 L 2.21875 -2.296875 C 2.582031 -2.296875 2.851562 -2.367188 3.03125 -2.515625 C 3.207031 -2.660156 3.296875 -2.882812 3.296875 -3.1875 C 3.296875 -3.46875 3.222656 -3.6875 3.078125 -3.84375 C 2.941406 -4 2.710938 -4.078125 2.390625 -4.078125 L 1.0625 -4.078125 Z M 1.0625 -2.296875 "/></g></g><g style="fill:rgb(24.308777%,20.388794%,54.899597%);fill-opacity:1;"><g transform="translate(48.118359, 33.872949)"><path style="stroke:none;" d="M 1.859375 -3.453125 C 2.378906 -3.453125 2.757812 -3.285156 3 -2.953125 C 3.238281 -2.617188 3.351562 -2.171875 3.34375 -1.609375 L 0.875 -1.609375 C 0.875 -1.203125 0.96875 -0.890625 1.15625 -0.671875 C 1.34375 -0.453125 1.613281 -0.34375 1.96875 -0.34375 C 2.425781 -0.34375 2.816406 -0.441406 3.140625 -0.640625 L 3.140625 -0.140625 C 2.804688 0.0234375 2.40625 0.109375 1.9375 0.109375 C 1.445312 0.109375 1.0625 -0.0390625 0.78125 -0.34375 C 0.507812 -0.65625 0.375 -1.109375 0.375 -1.703125 C 0.375 -2.273438 0.503906 -2.707031 0.765625 -3 C 1.023438 -3.300781 1.390625 -3.453125 1.859375 -3.453125 Z M 1.859375 -3 C 1.554688 -3 1.328125 -2.929688 1.171875 -2.796875 C 1.023438 -2.660156 0.929688 -2.414062 0.890625 -2.0625 L 2.828125 -2.0625 C 2.804688 -2.375 2.71875 -2.609375 2.5625 -2.765625 C 2.40625 -2.921875 2.171875 -3 1.859375 -3 Z M 1.859375 -3 "/></g></g><g style="fill:rgb(24.308777%,20.388794%,54.899597%);fill-opacity:1;"><g transform="translate(51.837974, 33.872949)"><path style="stroke:none;" d="M 2.078125 -3.453125 C 2.441406 -3.453125 2.738281 -3.390625 2.96875 -3.265625 C 3.207031 -3.140625 3.328125 -2.929688 3.328125 -2.640625 L 3.328125 1.46875 L 2.828125 1.46875 L 2.828125 -0.109375 C 2.691406 -0.046875 2.546875 0 2.390625 0.03125 C 2.242188 0.0703125 2.109375 0.09375 1.984375 0.09375 C 1.472656 0.09375 1.078125 -0.0546875 0.796875 -0.359375 C 0.515625 -0.660156 0.375 -1.078125 0.375 -1.609375 C 0.375 -2.304688 0.535156 -2.785156 0.859375 -3.046875 C 1.179688 -3.316406 1.585938 -3.453125 2.078125 -3.453125 Z M 0.890625 -1.609375 C 0.890625 -1.222656 0.984375 -0.914062 1.171875 -0.6875 C 1.359375 -0.46875 1.628906 -0.359375 1.984375 -0.359375 C 2.273438 -0.359375 2.554688 -0.4375 2.828125 -0.59375 L 2.828125 -2.640625 C 2.828125 -2.765625 2.742188 -2.851562 2.578125 -2.90625 C 2.421875 -2.96875 2.242188 -3 2.046875 -3 C 1.597656 -3 1.289062 -2.875 1.125 -2.625 C 0.96875 -2.375 0.890625 -2.035156 0.890625 -1.609375 Z M 0.890625 -1.609375 "/></g></g><g style="fill:rgb(24.308777%,20.388794%,54.899597%);fill-opacity:1;"><g transform="translate(55.707193, 33.872949)"><path style="stroke:none;" d="M 1.96875 0.109375 C 1.507812 0.109375 1.15625 -0.00390625 0.90625 -0.234375 C 0.664062 -0.472656 0.546875 -0.8125 0.546875 -1.25 L 0.546875 -3.390625 L 1.03125 -3.390625 L 1.03125 -1.359375 C 1.03125 -1.015625 1.101562 -0.757812 1.25 -0.59375 C 1.40625 -0.4375 1.644531 -0.359375 1.96875 -0.359375 C 2.28125 -0.359375 2.507812 -0.4375 2.65625 -0.59375 C 2.8125 -0.757812 2.890625 -1.015625 2.890625 -1.359375 L 2.890625 -3.390625 L 3.390625 -3.390625 L 3.390625 -1.25 C 3.390625 -0.8125 3.265625 -0.472656 3.015625 -0.234375 C 2.765625 -0.00390625 2.414062 0.109375 1.96875 0.109375 Z M 1.96875 0.109375 "/></g></g><g style="fill:rgb(24.308777%,20.388794%,54.899597%);fill-opacity:1;"><g transform="translate(59.637613, 33.872949)"><path style="stroke:none;" d="M 1.859375 -3.453125 C 2.378906 -3.453125 2.757812 -3.285156 3 -2.953125 C 3.238281 -2.617188 3.351562 -2.171875 3.34375 -1.609375 L 0.875 -1.609375 C 0.875 -1.203125 0.96875 -0.890625 1.15625 -0.671875 C 1.34375 -0.453125 1.613281 -0.34375 1.96875 -0.34375 C 2.425781 -0.34375 2.816406 -0.441406 3.140625 -0.640625 L 3.140625 -0.140625 C 2.804688 0.0234375 2.40625 0.109375 1.9375 0.109375 C 1.445312 0.109375 1.0625 -0.0390625 0.78125 -0.34375 C 0.507812 -0.65625 0.375 -1.109375 0.375 -1.703125 C 0.375 -2.273438 0.503906 -2.707031 0.765625 -3 C 1.023438 -3.300781 1.390625 -3.453125 1.859375 -3.453125 Z M 1.859375 -3 C 1.554688 -3 1.328125 -2.929688 1.171875 -2.796875 C 1.023438 -2.660156 0.929688 -2.414062 0.890625 -2.0625 L 2.828125 -2.0625 C 2.804688 -2.375 2.71875 -2.609375 2.5625 -2.765625 C 2.40625 -2.921875 2.171875 -3 1.859375 -3 Z M 1.859375 -3 "/></g></g><g style="fill:rgb(24.308777%,20.388794%,54.899597%);fill-opacity:1;"><g transform="translate(63.357227, 33.872949)"><path style="stroke:none;" d="M 1.5 0.109375 C 1.269531 0.109375 1.070312 0.0820312 0.90625 0.03125 C 0.75 -0.0078125 0.570312 -0.0820312 0.375 -0.1875 L 0.375 -0.703125 C 0.601562 -0.566406 0.789062 -0.472656 0.9375 -0.421875 C 1.082031 -0.367188 1.257812 -0.34375 1.46875 -0.34375 C 1.695312 -0.34375 1.878906 -0.390625 2.015625 -0.484375 C 2.160156 -0.585938 2.234375 -0.722656 2.234375 -0.890625 C 2.234375 -1.023438 2.191406 -1.128906 2.109375 -1.203125 C 2.023438 -1.273438 1.890625 -1.34375 1.703125 -1.40625 L 1.515625 -1.484375 C 1.265625 -1.554688 1.066406 -1.625 0.921875 -1.6875 C 0.773438 -1.75 0.648438 -1.84375 0.546875 -1.96875 C 0.441406 -2.09375 0.390625 -2.265625 0.390625 -2.484375 C 0.390625 -2.703125 0.445312 -2.878906 0.5625 -3.015625 C 0.675781 -3.160156 0.820312 -3.269531 1 -3.34375 C 1.175781 -3.414062 1.363281 -3.453125 1.5625 -3.453125 C 1.75 -3.453125 1.90625 -3.429688 2.03125 -3.390625 C 2.15625 -3.347656 2.328125 -3.28125 2.546875 -3.1875 L 2.546875 -2.703125 C 2.316406 -2.816406 2.140625 -2.894531 2.015625 -2.9375 C 1.898438 -2.976562 1.757812 -3 1.59375 -3 C 1.394531 -3 1.222656 -2.957031 1.078125 -2.875 C 0.941406 -2.800781 0.875 -2.691406 0.875 -2.546875 C 0.875 -2.429688 0.910156 -2.332031 0.984375 -2.25 C 1.054688 -2.175781 1.144531 -2.117188 1.25 -2.078125 C 1.351562 -2.035156 1.492188 -1.988281 1.671875 -1.9375 C 1.898438 -1.863281 2.082031 -1.796875 2.21875 -1.734375 C 2.351562 -1.679688 2.46875 -1.585938 2.5625 -1.453125 C 2.664062 -1.328125 2.71875 -1.15625 2.71875 -0.9375 C 2.71875 -0.707031 2.660156 -0.515625 2.546875 -0.359375 C 2.429688 -0.203125 2.28125 -0.0820312 2.09375 0 C 1.90625 0.0703125 1.707031 0.109375 1.5 0.109375 Z M 1.5 0.109375 "/></g></g><g style="fill:rgb(24.308777%,20.388794%,54.899597%);fill-opacity:1;"><g transform="translate(66.458047, 33.872949)"><path style="stroke:none;" d="M 1.609375 0.046875 C 1.359375 0.046875 1.15625 -0.0234375 1 -0.171875 C 0.84375 -0.328125 0.765625 -0.546875 0.765625 -0.828125 L 0.765625 -2.9375 L 0.171875 -2.9375 L 0.171875 -3.390625 L 0.765625 -3.390625 L 0.765625 -4.34375 L 1.25 -4.34375 L 1.25 -3.390625 L 2.125 -3.390625 L 2.125 -2.9375 L 1.25 -2.9375 L 1.25 -0.984375 C 1.25 -0.773438 1.28125 -0.625 1.34375 -0.53125 C 1.40625 -0.445312 1.523438 -0.40625 1.703125 -0.40625 C 1.867188 -0.40625 2.007812 -0.429688 2.125 -0.484375 L 2.125 -0.03125 C 2.0625 -0.0078125 1.976562 0.00390625 1.875 0.015625 C 1.78125 0.0351562 1.691406 0.046875 1.609375 0.046875 Z M 1.609375 0.046875 "/></g></g><g style="fill:rgb(24.308777%,20.388794%,54.899597%);fill-opacity:1;"><g transform="translate(68.92646, 33.872949)"><path style="stroke:none;" d=""/></g></g><g style="fill:rgb(24.308777%,20.388794%,54.899597%);fill-opacity:1;"><g transform="translate(70.89847, 33.872949)"><path style="stroke:none;" d="M 4.75 -4.53125 L 4.75 0 L 4.265625 0 L 4.265625 -3.734375 L 2.609375 -1.421875 L 1.0625 -3.71875 L 1.0625 0 L 0.578125 0 L 0.578125 -4.53125 L 1.109375 -4.53125 L 2.640625 -2.171875 L 4.234375 -4.53125 Z M 4.75 -4.53125 "/></g></g><g style="fill:rgb(24.308777%,20.388794%,54.899597%);fill-opacity:1;"><g transform="translate(76.236492, 33.872949)"><path style="stroke:none;" d="M 1.984375 -3.453125 C 2.367188 -3.453125 2.671875 -3.359375 2.890625 -3.171875 C 3.109375 -2.984375 3.21875 -2.710938 3.21875 -2.359375 L 3.21875 -0.71875 C 3.21875 -0.394531 3.082031 -0.175781 2.8125 -0.0625 C 2.550781 0.0507812 2.1875 0.109375 1.71875 0.109375 C 1.351562 0.109375 1.039062 0.03125 0.78125 -0.125 C 0.53125 -0.289062 0.40625 -0.5625 0.40625 -0.9375 C 0.40625 -1.332031 0.515625 -1.625 0.734375 -1.8125 C 0.960938 -2 1.269531 -2.09375 1.65625 -2.09375 C 2.09375 -2.09375 2.445312 -2.007812 2.71875 -1.84375 L 2.71875 -2.25 C 2.71875 -2.757812 2.421875 -3.015625 1.828125 -3.015625 C 1.640625 -3.015625 1.441406 -2.984375 1.234375 -2.921875 C 1.035156 -2.867188 0.867188 -2.789062 0.734375 -2.6875 L 0.734375 -3.171875 C 0.867188 -3.253906 1.050781 -3.320312 1.28125 -3.375 C 1.519531 -3.425781 1.753906 -3.453125 1.984375 -3.453125 Z M 1.828125 -0.328125 C 2.140625 -0.328125 2.363281 -0.347656 2.5 -0.390625 C 2.644531 -0.441406 2.71875 -0.539062 2.71875 -0.6875 L 2.71875 -1.453125 C 2.601562 -1.515625 2.460938 -1.5625 2.296875 -1.59375 C 2.128906 -1.625 1.957031 -1.640625 1.78125 -1.640625 C 1.5 -1.640625 1.28125 -1.582031 1.125 -1.46875 C 0.96875 -1.363281 0.890625 -1.207031 0.890625 -1 C 0.890625 -0.769531 0.976562 -0.597656 1.15625 -0.484375 C 1.34375 -0.378906 1.566406 -0.328125 1.828125 -0.328125 Z M 1.828125 -0.328125 "/></g></g><g style="fill:rgb(24.308777%,20.388794%,54.899597%);fill-opacity:1;"><g transform="translate(80.003706, 33.872949)"><path style="stroke:none;" d="M 0.546875 -3.125 C 0.984375 -3.34375 1.460938 -3.453125 1.984375 -3.453125 C 2.453125 -3.453125 2.789062 -3.347656 3 -3.140625 C 3.21875 -2.929688 3.328125 -2.617188 3.328125 -2.203125 L 3.328125 0 L 2.828125 0 L 2.828125 -2.203125 C 2.828125 -2.742188 2.523438 -3.015625 1.921875 -3.015625 C 1.640625 -3.015625 1.34375 -2.96875 1.03125 -2.875 L 1.03125 0 L 0.546875 0 Z M 0.546875 -3.125 "/></g></g><g style="fill:rgb(24.308777%,20.388794%,54.899597%);fill-opacity:1;"><g transform="translate(83.872925, 33.872949)"><path style="stroke:none;" d="M 1.984375 -3.453125 C 2.367188 -3.453125 2.671875 -3.359375 2.890625 -3.171875 C 3.109375 -2.984375 3.21875 -2.710938 3.21875 -2.359375 L 3.21875 -0.71875 C 3.21875 -0.394531 3.082031 -0.175781 2.8125 -0.0625 C 2.550781 0.0507812 2.1875 0.109375 1.71875 0.109375 C 1.351562 0.109375 1.039062 0.03125 0.78125 -0.125 C 0.53125 -0.289062 0.40625 -0.5625 0.40625 -0.9375 C 0.40625 -1.332031 0.515625 -1.625 0.734375 -1.8125 C 0.960938 -2 1.269531 -2.09375 1.65625 -2.09375 C 2.09375 -2.09375 2.445312 -2.007812 2.71875 -1.84375 L 2.71875 -2.25 C 2.71875 -2.757812 2.421875 -3.015625 1.828125 -3.015625 C 1.640625 -3.015625 1.441406 -2.984375 1.234375 -2.921875 C 1.035156 -2.867188 0.867188 -2.789062 0.734375 -2.6875 L 0.734375 -3.171875 C 0.867188 -3.253906 1.050781 -3.320312 1.28125 -3.375 C 1.519531 -3.425781 1.753906 -3.453125 1.984375 -3.453125 Z M 1.828125 -0.328125 C 2.140625 -0.328125 2.363281 -0.347656 2.5 -0.390625 C 2.644531 -0.441406 2.71875 -0.539062 2.71875 -0.6875 L 2.71875 -1.453125 C 2.601562 -1.515625 2.460938 -1.5625 2.296875 -1.59375 C 2.128906 -1.625 1.957031 -1.640625 1.78125 -1.640625 C 1.5 -1.640625 1.28125 -1.582031 1.125 -1.46875 C 0.96875 -1.363281 0.890625 -1.207031 0.890625 -1 C 0.890625 -0.769531 0.976562 -0.597656 1.15625 -0.484375 C 1.34375 -0.378906 1.566406 -0.328125 1.828125 -0.328125 Z M 1.828125 -0.328125 "/></g></g><g style="fill:rgb(24.308777%,20.388794%,54.899597%);fill-opacity:1;"><g transform="translate(87.64014, 33.872949)"><path style="stroke:none;" d="M 2.03125 -3.453125 C 2.382812 -3.453125 2.6875 -3.378906 2.9375 -3.234375 C 3.195312 -3.097656 3.328125 -2.890625 3.328125 -2.609375 L 3.328125 0.140625 C 3.328125 0.472656 3.21875 0.753906 3 0.984375 C 2.78125 1.222656 2.394531 1.34375 1.84375 1.34375 C 1.695312 1.34375 1.554688 1.328125 1.421875 1.296875 C 1.285156 1.273438 1.164062 1.253906 1.0625 1.234375 C 0.96875 1.210938 0.910156 1.195312 0.890625 1.1875 L 0.890625 0.734375 C 1.066406 0.773438 1.21875 0.8125 1.34375 0.84375 C 1.476562 0.875 1.628906 0.890625 1.796875 0.890625 C 2.203125 0.890625 2.472656 0.816406 2.609375 0.671875 C 2.753906 0.535156 2.828125 0.363281 2.828125 0.15625 L 2.828125 -0.09375 C 2.691406 -0.0390625 2.535156 0.00390625 2.359375 0.046875 C 2.179688 0.0859375 2.035156 0.109375 1.921875 0.109375 C 1.410156 0.109375 1.023438 -0.0390625 0.765625 -0.34375 C 0.503906 -0.644531 0.375 -1.066406 0.375 -1.609375 C 0.375 -2.296875 0.53125 -2.773438 0.84375 -3.046875 C 1.164062 -3.316406 1.5625 -3.453125 2.03125 -3.453125 Z M 0.890625 -1.609375 C 0.890625 -1.210938 0.972656 -0.898438 1.140625 -0.671875 C 1.304688 -0.453125 1.566406 -0.34375 1.921875 -0.34375 C 2.066406 -0.34375 2.21875 -0.363281 2.375 -0.40625 C 2.539062 -0.445312 2.691406 -0.503906 2.828125 -0.578125 L 2.828125 -2.53125 C 2.828125 -2.707031 2.757812 -2.828125 2.625 -2.890625 C 2.488281 -2.960938 2.300781 -3 2.0625 -3 C 1.613281 -3 1.304688 -2.875 1.140625 -2.625 C 0.972656 -2.375 0.890625 -2.035156 0.890625 -1.609375 Z M 0.890625 -1.609375 "/></g></g><g style="fill:rgb(24.308777%,20.388794%,54.899597%);fill-opacity:1;"><g transform="translate(91.509359, 33.872949)"><path style="stroke:none;" d="M 1.859375 -3.453125 C 2.378906 -3.453125 2.757812 -3.285156 3 -2.953125 C 3.238281 -2.617188 3.351562 -2.171875 3.34375 -1.609375 L 0.875 -1.609375 C 0.875 -1.203125 0.96875 -0.890625 1.15625 -0.671875 C 1.34375 -0.453125 1.613281 -0.34375 1.96875 -0.34375 C 2.425781 -0.34375 2.816406 -0.441406 3.140625 -0.640625 L 3.140625 -0.140625 C 2.804688 0.0234375 2.40625 0.109375 1.9375 0.109375 C 1.445312 0.109375 1.0625 -0.0390625 0.78125 -0.34375 C 0.507812 -0.65625 0.375 -1.109375 0.375 -1.703125 C 0.375 -2.273438 0.503906 -2.707031 0.765625 -3 C 1.023438 -3.300781 1.390625 -3.453125 1.859375 -3.453125 Z M 1.859375 -3 C 1.554688 -3 1.328125 -2.929688 1.171875 -2.796875 C 1.023438 -2.660156 0.929688 -2.414062 0.890625 -2.0625 L 2.828125 -2.0625 C 2.804688 -2.375 2.71875 -2.609375 2.5625 -2.765625 C 2.40625 -2.921875 2.171875 -3 1.859375 -3 Z M 1.859375 -3 "/></g></g><g style="fill:rgb(24.308777%,20.388794%,54.899597%);fill-opacity:1;"><g transform="translate(95.228974, 33.872949)"><path style="stroke:none;" d="M 4.109375 -3.453125 C 4.585938 -3.453125 4.929688 -3.347656 5.140625 -3.140625 C 5.347656 -2.929688 5.453125 -2.617188 5.453125 -2.203125 L 5.453125 0 L 4.96875 0 L 4.96875 -2.203125 C 4.96875 -2.742188 4.664062 -3.015625 4.0625 -3.015625 C 3.769531 -3.015625 3.492188 -2.9375 3.234375 -2.78125 C 3.296875 -2.625 3.328125 -2.429688 3.328125 -2.203125 L 3.328125 0 L 2.828125 0 L 2.828125 -2.203125 C 2.828125 -2.742188 2.523438 -3.015625 1.921875 -3.015625 C 1.640625 -3.015625 1.34375 -2.96875 1.03125 -2.875 L 1.03125 0 L 0.546875 0 L 0.546875 -3.125 C 0.984375 -3.34375 1.460938 -3.453125 1.984375 -3.453125 C 2.421875 -3.453125 2.75 -3.359375 2.96875 -3.171875 C 3.3125 -3.359375 3.691406 -3.453125 4.109375 -3.453125 Z M 4.109375 -3.453125 "/></g></g><g style="fill:rgb(24.308777%,20.388794%,54.899597%);fill-opacity:1;"><g transform="translate(101.2334, 33.872949)"><path style="stroke:none;" d="M 1.859375 -3.453125 C 2.378906 -3.453125 2.757812 -3.285156 3 -2.953125 C 3.238281 -2.617188 3.351562 -2.171875 3.34375 -1.609375 L 0.875 -1.609375 C 0.875 -1.203125 0.96875 -0.890625 1.15625 -0.671875 C 1.34375 -0.453125 1.613281 -0.34375 1.96875 -0.34375 C 2.425781 -0.34375 2.816406 -0.441406 3.140625 -0.640625 L 3.140625 -0.140625 C 2.804688 0.0234375 2.40625 0.109375 1.9375 0.109375 C 1.445312 0.109375 1.0625 -0.0390625 0.78125 -0.34375 C 0.507812 -0.65625 0.375 -1.109375 0.375 -1.703125 C 0.375 -2.273438 0.503906 -2.707031 0.765625 -3 C 1.023438 -3.300781 1.390625 -3.453125 1.859375 -3.453125 Z M 1.859375 -3 C 1.554688 -3 1.328125 -2.929688 1.171875 -2.796875 C 1.023438 -2.660156 0.929688 -2.414062 0.890625 -2.0625 L 2.828125 -2.0625 C 2.804688 -2.375 2.71875 -2.609375 2.5625 -2.765625 C 2.40625 -2.921875 2.171875 -3 1.859375 -3 Z M 1.859375 -3 "/></g></g><g style="fill:rgb(24.308777%,20.388794%,54.899597%);fill-opacity:1;"><g transform="translate(104.953014, 33.872949)"><path style="stroke:none;" d="M 0.546875 -3.125 C 0.984375 -3.34375 1.460938 -3.453125 1.984375 -3.453125 C 2.453125 -3.453125 2.789062 -3.347656 3 -3.140625 C 3.21875 -2.929688 3.328125 -2.617188 3.328125 -2.203125 L 3.328125 0 L 2.828125 0 L 2.828125 -2.203125 C 2.828125 -2.742188 2.523438 -3.015625 1.921875 -3.015625 C 1.640625 -3.015625 1.34375 -2.96875 1.03125 -2.875 L 1.03125 0 L 0.546875 0 Z M 0.546875 -3.125 "/></g></g><g style="fill:rgb(24.308777%,20.388794%,54.899597%);fill-opacity:1;"><g transform="translate(108.822233, 33.872949)"><path style="stroke:none;" d="M 1.609375 0.046875 C 1.359375 0.046875 1.15625 -0.0234375 1 -0.171875 C 0.84375 -0.328125 0.765625 -0.546875 0.765625 -0.828125 L 0.765625 -2.9375 L 0.171875 -2.9375 L 0.171875 -3.390625 L 0.765625 -3.390625 L 0.765625 -4.34375 L 1.25 -4.34375 L 1.25 -3.390625 L 2.125 -3.390625 L 2.125 -2.9375 L 1.25 -2.9375 L 1.25 -0.984375 C 1.25 -0.773438 1.28125 -0.625 1.34375 -0.53125 C 1.40625 -0.445312 1.523438 -0.40625 1.703125 -0.40625 C 1.867188 -0.40625 2.007812 -0.429688 2.125 -0.484375 L 2.125 -0.03125 C 2.0625 -0.0078125 1.976562 0.00390625 1.875 0.015625 C 1.78125 0.0351562 1.691406 0.046875 1.609375 0.046875 Z M 1.609375 0.046875 "/></g></g></g></svg>